M48
; DRILL file {KiCad 9.0.7} date 2026-03-16T08:16:44+0100
; FORMAT={-:-/ absolute / metric / decimal}
; #@! TF.CreationDate,2026-03-16T08:16:44+01:00
; #@! TF.GenerationSoftware,Kicad,Pcbnew,9.0.7
; #@! TF.FileFunction,Plated,1,2,PTH
FMAT,2
METRIC
; #@! TA.AperFunction,Plated,PTH,ViaDrill
T1C0.400
; #@! TA.AperFunction,Plated,PTH,ComponentDrill
T2C1.000
; #@! TA.AperFunction,Plated,PTH,ComponentDrill
T3C1.300
; #@! TA.AperFunction,Plated,PTH,ComponentDrill
T4C2.700
; #@! TA.AperFunction,Plated,PTH,ComponentDrill
T5C3.200
%
G90
G05
T1
X94.75Y-109.25
X106.0Y-78.0
X116.9Y-57.25
X119.5Y-80.0
X120.25Y-111.5
X155.0Y-137.355
X157.0Y-80.0
X157.75Y-69.25
X159.5Y-65.75
X164.2Y-59.05
X165.5Y-56.25
X168.0Y-48.5
X171.75Y-64.25
X174.5Y-65.5
X175.0Y-47.5
X175.5Y-69.5
X176.75Y-140.75
X186.5Y-56.25
X186.7Y-59.05
X187.5Y-47.5
X204.5Y-96.5
X209.672Y-93.95
X226.0Y-84.0
X239.5Y-97.0
X243.18Y-131.3
X243.5Y-81.5
X249.0Y-104.0
X249.5Y-134.585
X249.645Y-137.355
T2
X67.98Y-83.0
X67.98Y-100.78
X70.52Y-83.0
X70.52Y-100.78
X73.06Y-83.0
X73.06Y-100.78
X75.6Y-83.0
X75.6Y-100.78
X78.14Y-83.0
X78.14Y-100.78
X80.68Y-83.0
X80.68Y-100.78
X83.22Y-83.0
X83.22Y-100.78
X85.76Y-83.0
X85.76Y-100.78
X88.3Y-83.0
X88.3Y-100.78
X90.84Y-83.0
X90.84Y-100.78
X93.38Y-83.0
X93.38Y-100.78
X95.92Y-83.0
X95.92Y-100.78
X98.46Y-83.0
X98.46Y-100.78
X101.0Y-83.0
X101.0Y-100.78
X103.54Y-83.0
X103.54Y-100.78
X106.08Y-83.0
X106.08Y-100.78
X108.62Y-83.0
X108.62Y-100.78
X111.16Y-83.0
X111.16Y-100.78
X113.7Y-83.0
X113.7Y-100.78
X116.24Y-83.0
X116.24Y-100.78
X143.16Y-104.115
X143.16Y-106.885
X143.16Y-109.655
X143.16Y-112.425
X143.16Y-115.195
X143.16Y-117.965
X143.16Y-120.735
X143.16Y-123.505
X143.16Y-126.275
X143.16Y-129.045
X143.16Y-131.815
X143.16Y-134.585
X143.16Y-137.355
X146.0Y-105.5
X146.0Y-108.27
X146.0Y-111.04
X146.0Y-113.81
X146.0Y-116.58
X146.0Y-119.35
X146.0Y-122.12
X146.0Y-124.89
X146.0Y-127.66
X146.0Y-130.43
X146.0Y-133.2
X146.0Y-135.97
X218.0Y-73.0
X218.0Y-75.54
X218.0Y-78.08
X218.0Y-80.62
X218.0Y-83.16
X218.0Y-85.7
X218.0Y-88.24
X218.0Y-90.78
X218.0Y-107.29
X218.0Y-109.83
X218.0Y-112.37
X218.0Y-114.91
X218.0Y-117.45
X218.0Y-119.99
X218.0Y-122.53
X218.0Y-125.07
X220.54Y-73.0
X220.54Y-75.54
X220.54Y-78.08
X220.54Y-80.62
X220.54Y-83.16
X220.54Y-85.7
X220.54Y-88.24
X220.54Y-90.78
X220.54Y-107.29
X220.54Y-109.83
X220.54Y-112.37
X220.54Y-114.91
X220.54Y-117.45
X220.54Y-119.99
X220.54Y-122.53
X220.54Y-125.07
X254.2Y-59.92
X254.2Y-62.46
X254.2Y-65.0
X254.2Y-67.54
X254.2Y-70.08
X254.2Y-72.62
X254.2Y-75.16
X254.2Y-77.7
X254.2Y-80.24
X254.2Y-82.78
X254.2Y-85.32
X254.2Y-87.86
X254.2Y-90.4
X254.2Y-92.94
X254.2Y-95.48
X254.2Y-98.02
X254.2Y-100.56
X254.2Y-103.1
X254.2Y-105.64
X254.2Y-108.18
X254.2Y-110.72
X254.2Y-113.26
X254.2Y-115.8
X254.2Y-118.34
X254.2Y-120.88
X254.2Y-123.42
X254.2Y-125.96
X254.2Y-128.5
X254.2Y-131.04
X254.2Y-133.58
X254.2Y-136.12
X254.2Y-138.66
X256.74Y-59.92
X256.74Y-62.46
X256.74Y-65.0
X256.74Y-67.54
X256.74Y-70.08
X256.74Y-72.62
X256.74Y-75.16
X256.74Y-77.7
X256.74Y-80.24
X256.74Y-82.78
X256.74Y-85.32
X256.74Y-87.86
X256.74Y-90.4
X256.74Y-92.94
X256.74Y-95.48
X256.74Y-98.02
X256.74Y-100.56
X256.74Y-103.1
X256.74Y-105.64
X256.74Y-108.18
X256.74Y-110.72
X256.74Y-113.26
X256.74Y-115.8
X256.74Y-118.34
X256.74Y-120.88
X256.74Y-123.42
X256.74Y-125.96
X256.74Y-128.5
X256.74Y-131.04
X256.74Y-133.58
X256.74Y-136.12
X256.74Y-138.66
T3
X86.42Y-49.0
X91.5Y-49.0
X96.58Y-49.0
X101.66Y-49.0
X106.74Y-49.0
X111.82Y-49.0
X116.9Y-49.0
X121.98Y-49.0
T4
X70.95Y-33.6
X70.95Y-156.1
X269.71Y-33.6
X269.71Y-156.1
T5
X144.58Y-97.185
X144.58Y-144.285
M30
