%TF.GenerationSoftware,KiCad,Pcbnew,9.0.7*%
%TF.CreationDate,2026-03-16T08:16:37+01:00*%
%TF.ProjectId,PCB BANC DE TEST NEWCOM,50434220-4241-44e4-9320-444520544553,A*%
%TF.SameCoordinates,Original*%
%TF.FileFunction,Soldermask,Bot*%
%TF.FilePolarity,Negative*%
%FSLAX46Y46*%
G04 Gerber Fmt 4.6, Leading zero omitted, Abs format (unit mm)*
G04 Created by KiCad (PCBNEW 9.0.7) date 2026-03-16 08:16:37*
%MOMM*%
%LPD*%
G01*
G04 APERTURE LIST*
G04 Aperture macros list*
%AMRoundRect*
0 Rectangle with rounded corners*
0 $1 Rounding radius*
0 $2 $3 $4 $5 $6 $7 $8 $9 X,Y pos of 4 corners*
0 Add a 4 corners polygon primitive as box body*
4,1,4,$2,$3,$4,$5,$6,$7,$8,$9,$2,$3,0*
0 Add four circle primitives for the rounded corners*
1,1,$1+$1,$2,$3*
1,1,$1+$1,$4,$5*
1,1,$1+$1,$6,$7*
1,1,$1+$1,$8,$9*
0 Add four rect primitives between the rounded corners*
20,1,$1+$1,$2,$3,$4,$5,0*
20,1,$1+$1,$4,$5,$6,$7,0*
20,1,$1+$1,$6,$7,$8,$9,0*
20,1,$1+$1,$8,$9,$2,$3,0*%
%AMFreePoly0*
4,1,37,0.603843,0.796157,0.639018,0.796157,0.711114,0.766294,0.766294,0.711114,0.796157,0.639018,0.796157,0.603843,0.800000,0.600000,0.800000,-0.600000,0.796157,-0.603843,0.796157,-0.639018,0.766294,-0.711114,0.711114,-0.766294,0.639018,-0.796157,0.603843,-0.796157,0.600000,-0.800000,0.000000,-0.800000,0.000000,-0.796148,-0.078414,-0.796148,-0.232228,-0.765552,-0.377117,-0.705537,
-0.507515,-0.618408,-0.618408,-0.507515,-0.705537,-0.377117,-0.765552,-0.232228,-0.796148,-0.078414,-0.796148,0.078414,-0.765552,0.232228,-0.705537,0.377117,-0.618408,0.507515,-0.507515,0.618408,-0.377117,0.705537,-0.232228,0.765552,-0.078414,0.796148,0.000000,0.796148,0.000000,0.800000,0.600000,0.800000,0.603843,0.796157,0.603843,0.796157,$1*%
%AMFreePoly1*
4,1,37,0.000000,0.796148,0.078414,0.796148,0.232228,0.765552,0.377117,0.705537,0.507515,0.618408,0.618408,0.507515,0.705537,0.377117,0.765552,0.232228,0.796148,0.078414,0.796148,-0.078414,0.765552,-0.232228,0.705537,-0.377117,0.618408,-0.507515,0.507515,-0.618408,0.377117,-0.705537,0.232228,-0.765552,0.078414,-0.796148,0.000000,-0.796148,0.000000,-0.800000,-0.600000,-0.800000,
-0.603843,-0.796157,-0.639018,-0.796157,-0.711114,-0.766294,-0.766294,-0.711114,-0.796157,-0.639018,-0.796157,-0.603843,-0.800000,-0.600000,-0.800000,0.600000,-0.796157,0.603843,-0.796157,0.639018,-0.766294,0.711114,-0.711114,0.766294,-0.639018,0.796157,-0.603843,0.796157,-0.600000,0.800000,0.000000,0.800000,0.000000,0.796148,0.000000,0.796148,$1*%
G04 Aperture macros list end*
%ADD10C,4.700000*%
%ADD11RoundRect,0.250000X0.600000X0.600000X-0.600000X0.600000X-0.600000X-0.600000X0.600000X-0.600000X0*%
%ADD12C,1.700000*%
%ADD13C,4.000000*%
%ADD14R,1.600000X1.600000*%
%ADD15C,1.600000*%
%ADD16C,2.200000*%
%ADD17C,1.850000*%
%ADD18RoundRect,0.200000X0.600000X-0.600000X0.600000X0.600000X-0.600000X0.600000X-0.600000X-0.600000X0*%
%ADD19FreePoly0,90.000000*%
%ADD20FreePoly1,90.000000*%
%ADD21C,2.850000*%
%ADD22RoundRect,0.249999X0.525001X0.525001X-0.525001X0.525001X-0.525001X-0.525001X0.525001X-0.525001X0*%
%ADD23C,1.550000*%
%ADD24RoundRect,0.250000X1.050000X1.050000X-1.050000X1.050000X-1.050000X-1.050000X1.050000X-1.050000X0*%
%ADD25C,2.600000*%
G04 APERTURE END LIST*
D10*
%TO.C,H1*%
X70950000Y-33600000D03*
%TD*%
%TO.C,H4*%
X269710000Y-156100000D03*
%TD*%
D11*
%TO.C,J3*%
X220540000Y-90780000D03*
D12*
X218000000Y-90780000D03*
X220540000Y-88240000D03*
X218000000Y-88240000D03*
X220540000Y-85700000D03*
X218000000Y-85700000D03*
X220540000Y-83160000D03*
X218000000Y-83160000D03*
X220540000Y-80620000D03*
X218000000Y-80620000D03*
X220540000Y-78080000D03*
X218000000Y-78080000D03*
X220540000Y-75540000D03*
X218000000Y-75540000D03*
X220540000Y-73000000D03*
X218000000Y-73000000D03*
%TD*%
D11*
%TO.C,J1*%
X220540000Y-125070000D03*
D12*
X218000000Y-125070000D03*
X220540000Y-122530000D03*
X218000000Y-122530000D03*
X220540000Y-119990000D03*
X218000000Y-119990000D03*
X220540000Y-117450000D03*
X218000000Y-117450000D03*
X220540000Y-114910000D03*
X218000000Y-114910000D03*
X220540000Y-112370000D03*
X218000000Y-112370000D03*
X220540000Y-109830000D03*
X218000000Y-109830000D03*
X220540000Y-107290000D03*
X218000000Y-107290000D03*
%TD*%
D13*
%TO.C,PNS*%
X144580000Y-144285000D03*
X144580000Y-97185000D03*
D14*
X143160000Y-137355000D03*
D15*
X143160000Y-134585000D03*
X143160000Y-131815000D03*
X143160000Y-129045000D03*
X143160000Y-126275000D03*
X143160000Y-123505000D03*
X143160000Y-120735000D03*
X143160000Y-117965000D03*
X143160000Y-115195000D03*
X143160000Y-112425000D03*
X143160000Y-109655000D03*
X143160000Y-106885000D03*
X143160000Y-104115000D03*
X146000000Y-135970000D03*
X146000000Y-133200000D03*
X146000000Y-130430000D03*
X146000000Y-127660000D03*
X146000000Y-124890000D03*
X146000000Y-122120000D03*
X146000000Y-119350000D03*
X146000000Y-116580000D03*
X146000000Y-113810000D03*
X146000000Y-111040000D03*
X146000000Y-108270000D03*
X146000000Y-105500000D03*
%TD*%
D16*
%TO.C,A1*%
X68110000Y-94615000D03*
D17*
X71140000Y-94315000D03*
X71140000Y-89465000D03*
D16*
X68110000Y-89165000D03*
D18*
X67980000Y-100780000D03*
D15*
X70520000Y-100780000D03*
D19*
X73060000Y-100780000D03*
D15*
X75600000Y-100780000D03*
X78140000Y-100780000D03*
X80680000Y-100780000D03*
X83220000Y-100780000D03*
D19*
X85760000Y-100780000D03*
D15*
X88300000Y-100780000D03*
X90840000Y-100780000D03*
X93380000Y-100780000D03*
X95920000Y-100780000D03*
D19*
X98460000Y-100780000D03*
D15*
X101000000Y-100780000D03*
X103540000Y-100780000D03*
X106080000Y-100780000D03*
X108620000Y-100780000D03*
D19*
X111160000Y-100780000D03*
D15*
X113700000Y-100780000D03*
X116240000Y-100780000D03*
X116240000Y-83000000D03*
X113700000Y-83000000D03*
D20*
X111160000Y-83000000D03*
D15*
X108620000Y-83000000D03*
X106080000Y-83000000D03*
X103540000Y-83000000D03*
X101000000Y-83000000D03*
D20*
X98460000Y-83000000D03*
D15*
X95920000Y-83000000D03*
X93380000Y-83000000D03*
X90840000Y-83000000D03*
X88300000Y-83000000D03*
D20*
X85760000Y-83000000D03*
D15*
X83220000Y-83000000D03*
X80680000Y-83000000D03*
X78140000Y-83000000D03*
X75600000Y-83000000D03*
D20*
X73060000Y-83000000D03*
D15*
X70520000Y-83000000D03*
X67980000Y-83000000D03*
%TD*%
D10*
%TO.C,H2*%
X269710000Y-33600000D03*
%TD*%
%TO.C,H3*%
X70950000Y-156100000D03*
%TD*%
D21*
%TO.C,CARTE NEWCOM NS*%
X254500000Y-144290000D03*
X254500000Y-54290000D03*
D22*
X256740000Y-138660000D03*
D23*
X256740000Y-136120000D03*
X256740000Y-133580000D03*
X256740000Y-131040000D03*
X256740000Y-128500000D03*
X256740000Y-125960000D03*
X256740000Y-123420000D03*
X256740000Y-120880000D03*
X256740000Y-118340000D03*
X256740000Y-115800000D03*
X256740000Y-113260000D03*
X256740000Y-110720000D03*
X256740000Y-108180000D03*
X256740000Y-105640000D03*
X256740000Y-103100000D03*
X256740000Y-100560000D03*
X256740000Y-98020000D03*
X256740000Y-95480000D03*
X256740000Y-92940000D03*
X256740000Y-90400000D03*
X256740000Y-87860000D03*
X256740000Y-85320000D03*
X256740000Y-82780000D03*
X256740000Y-80240000D03*
X256740000Y-77700000D03*
X256740000Y-75160000D03*
X256740000Y-72620000D03*
X256740000Y-70080000D03*
X256740000Y-67540000D03*
X256740000Y-65000000D03*
X256740000Y-62460000D03*
X256740000Y-59920000D03*
X254200000Y-138660000D03*
X254200000Y-136120000D03*
X254200000Y-133580000D03*
X254200000Y-131040000D03*
X254200000Y-128500000D03*
X254200000Y-125960000D03*
X254200000Y-123420000D03*
X254200000Y-120880000D03*
X254200000Y-118340000D03*
X254200000Y-115800000D03*
X254200000Y-113260000D03*
X254200000Y-110720000D03*
X254200000Y-108180000D03*
X254200000Y-105640000D03*
X254200000Y-103100000D03*
X254200000Y-100560000D03*
X254200000Y-98020000D03*
X254200000Y-95480000D03*
X254200000Y-92940000D03*
X254200000Y-90400000D03*
X254200000Y-87860000D03*
X254200000Y-85320000D03*
X254200000Y-82780000D03*
X254200000Y-80240000D03*
X254200000Y-77700000D03*
X254200000Y-75160000D03*
X254200000Y-72620000D03*
X254200000Y-70080000D03*
X254200000Y-67540000D03*
X254200000Y-65000000D03*
X254200000Y-62460000D03*
X254200000Y-59920000D03*
%TD*%
D24*
%TO.C,J5*%
X121980000Y-49000000D03*
D25*
X116900000Y-49000000D03*
X111820000Y-49000000D03*
X106740000Y-49000000D03*
X101660000Y-49000000D03*
X96580000Y-49000000D03*
X91500000Y-49000000D03*
X86420000Y-49000000D03*
%TD*%
M02*
