%TF.GenerationSoftware,KiCad,Pcbnew,9.0.7*%
%TF.CreationDate,2026-03-16T08:16:37+01:00*%
%TF.ProjectId,PCB BANC DE TEST NEWCOM,50434220-4241-44e4-9320-444520544553,A*%
%TF.SameCoordinates,Original*%
%TF.FileFunction,Legend,Bot*%
%TF.FilePolarity,Positive*%
%FSLAX46Y46*%
G04 Gerber Fmt 4.6, Leading zero omitted, Abs format (unit mm)*
G04 Created by KiCad (PCBNEW 9.0.7) date 2026-03-16 08:16:37*
%MOMM*%
%LPD*%
G01*
G04 APERTURE LIST*
%ADD10C,0.300000*%
%ADD11C,0.120000*%
G04 APERTURE END LIST*
D10*
X119195489Y-41979400D02*
X118052632Y-41979400D01*
X116624060Y-41050828D02*
X117338346Y-41050828D01*
X117338346Y-41050828D02*
X117409774Y-41765114D01*
X117409774Y-41765114D02*
X117338346Y-41693685D01*
X117338346Y-41693685D02*
X117195489Y-41622257D01*
X117195489Y-41622257D02*
X116838346Y-41622257D01*
X116838346Y-41622257D02*
X116695489Y-41693685D01*
X116695489Y-41693685D02*
X116624060Y-41765114D01*
X116624060Y-41765114D02*
X116552631Y-41907971D01*
X116552631Y-41907971D02*
X116552631Y-42265114D01*
X116552631Y-42265114D02*
X116624060Y-42407971D01*
X116624060Y-42407971D02*
X116695489Y-42479400D01*
X116695489Y-42479400D02*
X116838346Y-42550828D01*
X116838346Y-42550828D02*
X117195489Y-42550828D01*
X117195489Y-42550828D02*
X117338346Y-42479400D01*
X117338346Y-42479400D02*
X117409774Y-42407971D01*
X116124060Y-41050828D02*
X115624060Y-42550828D01*
X115624060Y-42550828D02*
X115124060Y-41050828D01*
X102659774Y-54872257D02*
X102802632Y-54800828D01*
X102802632Y-54800828D02*
X103016917Y-54800828D01*
X103016917Y-54800828D02*
X103231203Y-54872257D01*
X103231203Y-54872257D02*
X103374060Y-55015114D01*
X103374060Y-55015114D02*
X103445489Y-55157971D01*
X103445489Y-55157971D02*
X103516917Y-55443685D01*
X103516917Y-55443685D02*
X103516917Y-55657971D01*
X103516917Y-55657971D02*
X103445489Y-55943685D01*
X103445489Y-55943685D02*
X103374060Y-56086542D01*
X103374060Y-56086542D02*
X103231203Y-56229400D01*
X103231203Y-56229400D02*
X103016917Y-56300828D01*
X103016917Y-56300828D02*
X102874060Y-56300828D01*
X102874060Y-56300828D02*
X102659774Y-56229400D01*
X102659774Y-56229400D02*
X102588346Y-56157971D01*
X102588346Y-56157971D02*
X102588346Y-55657971D01*
X102588346Y-55657971D02*
X102874060Y-55657971D01*
X101945489Y-56300828D02*
X101945489Y-54800828D01*
X101945489Y-54800828D02*
X101088346Y-56300828D01*
X101088346Y-56300828D02*
X101088346Y-54800828D01*
X100374060Y-56300828D02*
X100374060Y-54800828D01*
X100374060Y-54800828D02*
X100016917Y-54800828D01*
X100016917Y-54800828D02*
X99802631Y-54872257D01*
X99802631Y-54872257D02*
X99659774Y-55015114D01*
X99659774Y-55015114D02*
X99588345Y-55157971D01*
X99588345Y-55157971D02*
X99516917Y-55443685D01*
X99516917Y-55443685D02*
X99516917Y-55657971D01*
X99516917Y-55657971D02*
X99588345Y-55943685D01*
X99588345Y-55943685D02*
X99659774Y-56086542D01*
X99659774Y-56086542D02*
X99802631Y-56229400D01*
X99802631Y-56229400D02*
X100016917Y-56300828D01*
X100016917Y-56300828D02*
X100374060Y-56300828D01*
X112659774Y-54872257D02*
X112802632Y-54800828D01*
X112802632Y-54800828D02*
X113016917Y-54800828D01*
X113016917Y-54800828D02*
X113231203Y-54872257D01*
X113231203Y-54872257D02*
X113374060Y-55015114D01*
X113374060Y-55015114D02*
X113445489Y-55157971D01*
X113445489Y-55157971D02*
X113516917Y-55443685D01*
X113516917Y-55443685D02*
X113516917Y-55657971D01*
X113516917Y-55657971D02*
X113445489Y-55943685D01*
X113445489Y-55943685D02*
X113374060Y-56086542D01*
X113374060Y-56086542D02*
X113231203Y-56229400D01*
X113231203Y-56229400D02*
X113016917Y-56300828D01*
X113016917Y-56300828D02*
X112874060Y-56300828D01*
X112874060Y-56300828D02*
X112659774Y-56229400D01*
X112659774Y-56229400D02*
X112588346Y-56157971D01*
X112588346Y-56157971D02*
X112588346Y-55657971D01*
X112588346Y-55657971D02*
X112874060Y-55657971D01*
X111945489Y-56300828D02*
X111945489Y-54800828D01*
X111945489Y-54800828D02*
X111088346Y-56300828D01*
X111088346Y-56300828D02*
X111088346Y-54800828D01*
X110374060Y-56300828D02*
X110374060Y-54800828D01*
X110374060Y-54800828D02*
X110016917Y-54800828D01*
X110016917Y-54800828D02*
X109802631Y-54872257D01*
X109802631Y-54872257D02*
X109659774Y-55015114D01*
X109659774Y-55015114D02*
X109588345Y-55157971D01*
X109588345Y-55157971D02*
X109516917Y-55443685D01*
X109516917Y-55443685D02*
X109516917Y-55657971D01*
X109516917Y-55657971D02*
X109588345Y-55943685D01*
X109588345Y-55943685D02*
X109659774Y-56086542D01*
X109659774Y-56086542D02*
X109802631Y-56229400D01*
X109802631Y-56229400D02*
X110016917Y-56300828D01*
X110016917Y-56300828D02*
X110374060Y-56300828D01*
X87945489Y-41979400D02*
X86802632Y-41979400D01*
X87374060Y-42550828D02*
X87374060Y-41407971D01*
X85302631Y-42550828D02*
X86159774Y-42550828D01*
X85731203Y-42550828D02*
X85731203Y-41050828D01*
X85731203Y-41050828D02*
X85874060Y-41265114D01*
X85874060Y-41265114D02*
X86016917Y-41407971D01*
X86016917Y-41407971D02*
X86159774Y-41479400D01*
X84731203Y-41193685D02*
X84659775Y-41122257D01*
X84659775Y-41122257D02*
X84516918Y-41050828D01*
X84516918Y-41050828D02*
X84159775Y-41050828D01*
X84159775Y-41050828D02*
X84016918Y-41122257D01*
X84016918Y-41122257D02*
X83945489Y-41193685D01*
X83945489Y-41193685D02*
X83874060Y-41336542D01*
X83874060Y-41336542D02*
X83874060Y-41479400D01*
X83874060Y-41479400D02*
X83945489Y-41693685D01*
X83945489Y-41693685D02*
X84802632Y-42550828D01*
X84802632Y-42550828D02*
X83874060Y-42550828D01*
X83445489Y-41050828D02*
X82945489Y-42550828D01*
X82945489Y-42550828D02*
X82445489Y-41050828D01*
X98945489Y-41979400D02*
X97802632Y-41979400D01*
X96302631Y-42550828D02*
X97159774Y-42550828D01*
X96731203Y-42550828D02*
X96731203Y-41050828D01*
X96731203Y-41050828D02*
X96874060Y-41265114D01*
X96874060Y-41265114D02*
X97016917Y-41407971D01*
X97016917Y-41407971D02*
X97159774Y-41479400D01*
X95731203Y-41193685D02*
X95659775Y-41122257D01*
X95659775Y-41122257D02*
X95516918Y-41050828D01*
X95516918Y-41050828D02*
X95159775Y-41050828D01*
X95159775Y-41050828D02*
X95016918Y-41122257D01*
X95016918Y-41122257D02*
X94945489Y-41193685D01*
X94945489Y-41193685D02*
X94874060Y-41336542D01*
X94874060Y-41336542D02*
X94874060Y-41479400D01*
X94874060Y-41479400D02*
X94945489Y-41693685D01*
X94945489Y-41693685D02*
X95802632Y-42550828D01*
X95802632Y-42550828D02*
X94874060Y-42550828D01*
X94445489Y-41050828D02*
X93945489Y-42550828D01*
X93945489Y-42550828D02*
X93445489Y-41050828D01*
X123159774Y-54872257D02*
X123302632Y-54800828D01*
X123302632Y-54800828D02*
X123516917Y-54800828D01*
X123516917Y-54800828D02*
X123731203Y-54872257D01*
X123731203Y-54872257D02*
X123874060Y-55015114D01*
X123874060Y-55015114D02*
X123945489Y-55157971D01*
X123945489Y-55157971D02*
X124016917Y-55443685D01*
X124016917Y-55443685D02*
X124016917Y-55657971D01*
X124016917Y-55657971D02*
X123945489Y-55943685D01*
X123945489Y-55943685D02*
X123874060Y-56086542D01*
X123874060Y-56086542D02*
X123731203Y-56229400D01*
X123731203Y-56229400D02*
X123516917Y-56300828D01*
X123516917Y-56300828D02*
X123374060Y-56300828D01*
X123374060Y-56300828D02*
X123159774Y-56229400D01*
X123159774Y-56229400D02*
X123088346Y-56157971D01*
X123088346Y-56157971D02*
X123088346Y-55657971D01*
X123088346Y-55657971D02*
X123374060Y-55657971D01*
X122445489Y-56300828D02*
X122445489Y-54800828D01*
X122445489Y-54800828D02*
X121588346Y-56300828D01*
X121588346Y-56300828D02*
X121588346Y-54800828D01*
X120874060Y-56300828D02*
X120874060Y-54800828D01*
X120874060Y-54800828D02*
X120516917Y-54800828D01*
X120516917Y-54800828D02*
X120302631Y-54872257D01*
X120302631Y-54872257D02*
X120159774Y-55015114D01*
X120159774Y-55015114D02*
X120088345Y-55157971D01*
X120088345Y-55157971D02*
X120016917Y-55443685D01*
X120016917Y-55443685D02*
X120016917Y-55657971D01*
X120016917Y-55657971D02*
X120088345Y-55943685D01*
X120088345Y-55943685D02*
X120159774Y-56086542D01*
X120159774Y-56086542D02*
X120302631Y-56229400D01*
X120302631Y-56229400D02*
X120516917Y-56300828D01*
X120516917Y-56300828D02*
X120874060Y-56300828D01*
X109195489Y-41979400D02*
X108052632Y-41979400D01*
X108624060Y-42550828D02*
X108624060Y-41407971D01*
X106624060Y-41050828D02*
X107338346Y-41050828D01*
X107338346Y-41050828D02*
X107409774Y-41765114D01*
X107409774Y-41765114D02*
X107338346Y-41693685D01*
X107338346Y-41693685D02*
X107195489Y-41622257D01*
X107195489Y-41622257D02*
X106838346Y-41622257D01*
X106838346Y-41622257D02*
X106695489Y-41693685D01*
X106695489Y-41693685D02*
X106624060Y-41765114D01*
X106624060Y-41765114D02*
X106552631Y-41907971D01*
X106552631Y-41907971D02*
X106552631Y-42265114D01*
X106552631Y-42265114D02*
X106624060Y-42407971D01*
X106624060Y-42407971D02*
X106695489Y-42479400D01*
X106695489Y-42479400D02*
X106838346Y-42550828D01*
X106838346Y-42550828D02*
X107195489Y-42550828D01*
X107195489Y-42550828D02*
X107338346Y-42479400D01*
X107338346Y-42479400D02*
X107409774Y-42407971D01*
X106124060Y-41050828D02*
X105624060Y-42550828D01*
X105624060Y-42550828D02*
X105124060Y-41050828D01*
X92659774Y-54872257D02*
X92802632Y-54800828D01*
X92802632Y-54800828D02*
X93016917Y-54800828D01*
X93016917Y-54800828D02*
X93231203Y-54872257D01*
X93231203Y-54872257D02*
X93374060Y-55015114D01*
X93374060Y-55015114D02*
X93445489Y-55157971D01*
X93445489Y-55157971D02*
X93516917Y-55443685D01*
X93516917Y-55443685D02*
X93516917Y-55657971D01*
X93516917Y-55657971D02*
X93445489Y-55943685D01*
X93445489Y-55943685D02*
X93374060Y-56086542D01*
X93374060Y-56086542D02*
X93231203Y-56229400D01*
X93231203Y-56229400D02*
X93016917Y-56300828D01*
X93016917Y-56300828D02*
X92874060Y-56300828D01*
X92874060Y-56300828D02*
X92659774Y-56229400D01*
X92659774Y-56229400D02*
X92588346Y-56157971D01*
X92588346Y-56157971D02*
X92588346Y-55657971D01*
X92588346Y-55657971D02*
X92874060Y-55657971D01*
X91945489Y-56300828D02*
X91945489Y-54800828D01*
X91945489Y-54800828D02*
X91088346Y-56300828D01*
X91088346Y-56300828D02*
X91088346Y-54800828D01*
X90374060Y-56300828D02*
X90374060Y-54800828D01*
X90374060Y-54800828D02*
X90016917Y-54800828D01*
X90016917Y-54800828D02*
X89802631Y-54872257D01*
X89802631Y-54872257D02*
X89659774Y-55015114D01*
X89659774Y-55015114D02*
X89588345Y-55157971D01*
X89588345Y-55157971D02*
X89516917Y-55443685D01*
X89516917Y-55443685D02*
X89516917Y-55657971D01*
X89516917Y-55657971D02*
X89588345Y-55943685D01*
X89588345Y-55943685D02*
X89659774Y-56086542D01*
X89659774Y-56086542D02*
X89802631Y-56229400D01*
X89802631Y-56229400D02*
X90016917Y-56300828D01*
X90016917Y-56300828D02*
X90374060Y-56300828D01*
D11*
%TO.C,J5*%
X83760000Y-43680000D02*
X83760000Y-53720000D01*
X83760000Y-53720000D02*
X121680000Y-53720000D01*
X122280000Y-53720000D02*
X124640000Y-53720000D01*
X124640000Y-43680000D02*
X83760000Y-43680000D01*
X124640000Y-46700000D02*
X83760000Y-46700000D01*
X124640000Y-51600000D02*
X83760000Y-51600000D01*
X124640000Y-53100000D02*
X83760000Y-53100000D01*
X124640000Y-53720000D02*
X124640000Y-43680000D01*
X122420000Y-54330000D02*
X121540000Y-54330000D01*
X121980000Y-53720000D01*
X122420000Y-54330000D01*
G36*
X122420000Y-54330000D02*
G01*
X121540000Y-54330000D01*
X121980000Y-53720000D01*
X122420000Y-54330000D01*
G37*
%TD*%
M02*
