%TF.GenerationSoftware,KiCad,Pcbnew,9.0.7*%
%TF.CreationDate,2026-03-16T08:16:37+01:00*%
%TF.ProjectId,PCB BANC DE TEST NEWCOM,50434220-4241-44e4-9320-444520544553,A*%
%TF.SameCoordinates,Original*%
%TF.FileFunction,Paste,Top*%
%TF.FilePolarity,Positive*%
%FSLAX46Y46*%
G04 Gerber Fmt 4.6, Leading zero omitted, Abs format (unit mm)*
G04 Created by KiCad (PCBNEW 9.0.7) date 2026-03-16 08:16:37*
%MOMM*%
%LPD*%
G01*
G04 APERTURE LIST*
G04 Aperture macros list*
%AMRoundRect*
0 Rectangle with rounded corners*
0 $1 Rounding radius*
0 $2 $3 $4 $5 $6 $7 $8 $9 X,Y pos of 4 corners*
0 Add a 4 corners polygon primitive as box body*
4,1,4,$2,$3,$4,$5,$6,$7,$8,$9,$2,$3,0*
0 Add four circle primitives for the rounded corners*
1,1,$1+$1,$2,$3*
1,1,$1+$1,$4,$5*
1,1,$1+$1,$6,$7*
1,1,$1+$1,$8,$9*
0 Add four rect primitives between the rounded corners*
20,1,$1+$1,$2,$3,$4,$5,0*
20,1,$1+$1,$4,$5,$6,$7,0*
20,1,$1+$1,$6,$7,$8,$9,0*
20,1,$1+$1,$8,$9,$2,$3,0*%
G04 Aperture macros list end*
%ADD10RoundRect,0.250000X-0.262500X-0.450000X0.262500X-0.450000X0.262500X0.450000X-0.262500X0.450000X0*%
%ADD11RoundRect,0.250000X0.262500X0.450000X-0.262500X0.450000X-0.262500X-0.450000X0.262500X-0.450000X0*%
%ADD12RoundRect,0.250000X-0.412500X-1.100000X0.412500X-1.100000X0.412500X1.100000X-0.412500X1.100000X0*%
%ADD13RoundRect,0.250000X-0.412500X-0.650000X0.412500X-0.650000X0.412500X0.650000X-0.412500X0.650000X0*%
%ADD14RoundRect,0.250000X-0.450000X0.325000X-0.450000X-0.325000X0.450000X-0.325000X0.450000X0.325000X0*%
%ADD15RoundRect,0.250000X-0.450000X0.262500X-0.450000X-0.262500X0.450000X-0.262500X0.450000X0.262500X0*%
%ADD16RoundRect,0.250000X0.450000X-0.262500X0.450000X0.262500X-0.450000X0.262500X-0.450000X-0.262500X0*%
%ADD17RoundRect,0.250000X0.412500X1.100000X-0.412500X1.100000X-0.412500X-1.100000X0.412500X-1.100000X0*%
%ADD18RoundRect,0.250000X0.450000X-0.325000X0.450000X0.325000X-0.450000X0.325000X-0.450000X-0.325000X0*%
%ADD19RoundRect,0.250000X0.412500X0.650000X-0.412500X0.650000X-0.412500X-0.650000X0.412500X-0.650000X0*%
%ADD20R,1.475000X0.300000*%
%ADD21R,0.300000X1.475000*%
G04 APERTURE END LIST*
D10*
%TO.C,R5*%
X228097500Y-122530000D03*
X229922500Y-122530000D03*
%TD*%
D11*
%TO.C,R16*%
X205922500Y-88240000D03*
X204097500Y-88240000D03*
%TD*%
D12*
%TO.C,C4*%
X188000000Y-66000000D03*
X191125000Y-66000000D03*
%TD*%
D13*
%TO.C,C2*%
X161875000Y-81500000D03*
X165000000Y-81500000D03*
%TD*%
D14*
%TO.C,-5V*%
X116900000Y-60617500D03*
X116900000Y-62667500D03*
%TD*%
D15*
%TO.C,R25*%
X106740000Y-65015000D03*
X106740000Y-66840000D03*
%TD*%
D11*
%TO.C,R10*%
X211497500Y-90780000D03*
X209672500Y-90780000D03*
%TD*%
D16*
%TO.C,R22*%
X168000000Y-60875000D03*
X168000000Y-59050000D03*
%TD*%
D10*
%TO.C,R14*%
X235097500Y-88240000D03*
X236922500Y-88240000D03*
%TD*%
D15*
%TO.C,R28*%
X116900000Y-65015000D03*
X116900000Y-66840000D03*
%TD*%
D16*
%TO.C,R23*%
X161000000Y-60875000D03*
X161000000Y-59050000D03*
%TD*%
%TO.C,R31*%
X164000000Y-54875000D03*
X164000000Y-53050000D03*
%TD*%
%TO.C,R27*%
X176000000Y-54875000D03*
X176000000Y-53050000D03*
%TD*%
D17*
%TO.C,C1*%
X191125000Y-70500000D03*
X188000000Y-70500000D03*
%TD*%
D16*
%TO.C,R21*%
X172500000Y-60875000D03*
X172500000Y-59050000D03*
%TD*%
%TO.C,R24*%
X157000000Y-60875000D03*
X157000000Y-59050000D03*
%TD*%
D11*
%TO.C,R9*%
X205922500Y-90780000D03*
X204097500Y-90780000D03*
%TD*%
%TO.C,R15*%
X211497500Y-88240000D03*
X209672500Y-88240000D03*
%TD*%
D10*
%TO.C,R8*%
X229597500Y-85700000D03*
X231422500Y-85700000D03*
%TD*%
%TO.C,R1*%
X233597500Y-125070000D03*
X235422500Y-125070000D03*
%TD*%
%TO.C,R7*%
X235097500Y-85700000D03*
X236922500Y-85700000D03*
%TD*%
D18*
%TO.C,+12V*%
X86420000Y-62737500D03*
X86420000Y-60687500D03*
%TD*%
D19*
%TO.C,C3*%
X191062500Y-78000000D03*
X187937500Y-78000000D03*
%TD*%
D10*
%TO.C,R13*%
X229635000Y-88240000D03*
X231460000Y-88240000D03*
%TD*%
D14*
%TO.C,-12V*%
X96580000Y-60727500D03*
X96580000Y-62777500D03*
%TD*%
D10*
%TO.C,R3*%
X228097500Y-125070000D03*
X229922500Y-125070000D03*
%TD*%
%TO.C,R20*%
X150125000Y-75500000D03*
X151950000Y-75500000D03*
%TD*%
D11*
%TO.C,R19*%
X151875000Y-68500000D03*
X150050000Y-68500000D03*
%TD*%
D10*
%TO.C,R17*%
X188625000Y-85500000D03*
X190450000Y-85500000D03*
%TD*%
D15*
%TO.C,R26*%
X172500000Y-53050000D03*
X172500000Y-54875000D03*
%TD*%
D13*
%TO.C,C5*%
X187875000Y-81500000D03*
X191000000Y-81500000D03*
%TD*%
D11*
%TO.C,R2*%
X207000000Y-125070000D03*
X205175000Y-125070000D03*
%TD*%
D15*
%TO.C,R29*%
X96580000Y-65015000D03*
X96580000Y-66840000D03*
%TD*%
D10*
%TO.C,R6*%
X233597500Y-122530000D03*
X235422500Y-122530000D03*
%TD*%
D20*
%TO.C,IC1*%
X161517300Y-69000000D03*
X161517300Y-69500000D03*
X161517300Y-70000000D03*
X161517300Y-70500000D03*
X161517300Y-71000000D03*
X161517300Y-71500000D03*
X161517300Y-72000000D03*
X161517300Y-72500000D03*
X161517300Y-73000000D03*
X161517300Y-73500000D03*
X161517300Y-74000000D03*
X161517300Y-74500000D03*
X161517300Y-75000000D03*
X161517300Y-75500000D03*
X161517300Y-76000000D03*
X161517300Y-76500000D03*
D21*
X163505300Y-78488000D03*
X164005300Y-78488000D03*
X164505300Y-78488000D03*
X165005300Y-78488000D03*
X165505300Y-78488000D03*
X166005300Y-78488000D03*
X166505300Y-78488000D03*
X167005300Y-78488000D03*
X167505300Y-78488000D03*
X168005300Y-78488000D03*
X168505300Y-78488000D03*
X169005300Y-78488000D03*
X169505300Y-78488000D03*
X170005300Y-78488000D03*
X170505300Y-78488000D03*
X171005300Y-78488000D03*
D20*
X172993300Y-76500000D03*
X172993300Y-76000000D03*
X172993300Y-75500000D03*
X172993300Y-75000000D03*
X172993300Y-74500000D03*
X172993300Y-74000000D03*
X172993300Y-73500000D03*
X172993300Y-73000000D03*
X172993300Y-72500000D03*
X172993300Y-72000000D03*
X172993300Y-71500000D03*
X172993300Y-71000000D03*
X172993300Y-70500000D03*
X172993300Y-70000000D03*
X172993300Y-69500000D03*
X172993300Y-69000000D03*
D21*
X171005300Y-67012000D03*
X170505300Y-67012000D03*
X170005300Y-67012000D03*
X169505300Y-67012000D03*
X169005300Y-67012000D03*
X168505300Y-67012000D03*
X168005300Y-67012000D03*
X167505300Y-67012000D03*
X167005300Y-67012000D03*
X166505300Y-67012000D03*
X166005300Y-67012000D03*
X165505300Y-67012000D03*
X165005300Y-67012000D03*
X164505300Y-67012000D03*
X164005300Y-67012000D03*
X163505300Y-67012000D03*
%TD*%
D10*
%TO.C,R12*%
X229597500Y-90780000D03*
X231422500Y-90780000D03*
%TD*%
D18*
%TO.C,+5V*%
X106740000Y-62737500D03*
X106740000Y-60687500D03*
%TD*%
D10*
%TO.C,R11*%
X235097500Y-90780000D03*
X236922500Y-90780000D03*
%TD*%
D13*
%TO.C,C6*%
X188000000Y-74500000D03*
X191125000Y-74500000D03*
%TD*%
D15*
%TO.C,R32*%
X86420000Y-65015000D03*
X86420000Y-66840000D03*
%TD*%
%TO.C,R30*%
X168000000Y-53050000D03*
X168000000Y-54875000D03*
%TD*%
D11*
%TO.C,R18*%
X151950000Y-72000000D03*
X150125000Y-72000000D03*
%TD*%
%TO.C,R4*%
X211497500Y-125070000D03*
X209672500Y-125070000D03*
%TD*%
M02*
