%TF.GenerationSoftware,KiCad,Pcbnew,9.0.7*%
%TF.CreationDate,2026-03-16T08:16:37+01:00*%
%TF.ProjectId,PCB BANC DE TEST NEWCOM,50434220-4241-44e4-9320-444520544553,A*%
%TF.SameCoordinates,Original*%
%TF.FileFunction,Legend,Top*%
%TF.FilePolarity,Positive*%
%FSLAX46Y46*%
G04 Gerber Fmt 4.6, Leading zero omitted, Abs format (unit mm)*
G04 Created by KiCad (PCBNEW 9.0.7) date 2026-03-16 08:16:37*
%MOMM*%
%LPD*%
G01*
G04 APERTURE LIST*
%ADD10C,0.200000*%
%ADD11C,0.300000*%
%ADD12C,0.150000*%
%ADD13C,0.254000*%
%ADD14C,0.120000*%
%ADD15C,0.250000*%
G04 APERTURE END LIST*
D10*
X226000000Y-81750000D02*
X239970000Y-81750000D01*
X226000000Y-116040000D02*
X239970000Y-116040000D01*
X151250000Y-151750000D02*
X139250000Y-151750000D01*
X238700000Y-114770000D02*
X239970000Y-116040000D01*
X238700000Y-80480000D02*
X239970000Y-81750000D01*
X238700000Y-117310000D02*
X238700000Y-114770000D01*
X239970000Y-116040000D02*
X238700000Y-117310000D01*
X238700000Y-83020000D02*
X238700000Y-80480000D01*
X239970000Y-81750000D02*
X238700000Y-83020000D01*
D11*
X110590225Y-51872257D02*
X110447368Y-51800828D01*
X110447368Y-51800828D02*
X110233082Y-51800828D01*
X110233082Y-51800828D02*
X110018796Y-51872257D01*
X110018796Y-51872257D02*
X109875939Y-52015114D01*
X109875939Y-52015114D02*
X109804510Y-52157971D01*
X109804510Y-52157971D02*
X109733082Y-52443685D01*
X109733082Y-52443685D02*
X109733082Y-52657971D01*
X109733082Y-52657971D02*
X109804510Y-52943685D01*
X109804510Y-52943685D02*
X109875939Y-53086542D01*
X109875939Y-53086542D02*
X110018796Y-53229400D01*
X110018796Y-53229400D02*
X110233082Y-53300828D01*
X110233082Y-53300828D02*
X110375939Y-53300828D01*
X110375939Y-53300828D02*
X110590225Y-53229400D01*
X110590225Y-53229400D02*
X110661653Y-53157971D01*
X110661653Y-53157971D02*
X110661653Y-52657971D01*
X110661653Y-52657971D02*
X110375939Y-52657971D01*
X111304510Y-53300828D02*
X111304510Y-51800828D01*
X111304510Y-51800828D02*
X112161653Y-53300828D01*
X112161653Y-53300828D02*
X112161653Y-51800828D01*
X112875939Y-53300828D02*
X112875939Y-51800828D01*
X112875939Y-51800828D02*
X113233082Y-51800828D01*
X113233082Y-51800828D02*
X113447368Y-51872257D01*
X113447368Y-51872257D02*
X113590225Y-52015114D01*
X113590225Y-52015114D02*
X113661654Y-52157971D01*
X113661654Y-52157971D02*
X113733082Y-52443685D01*
X113733082Y-52443685D02*
X113733082Y-52657971D01*
X113733082Y-52657971D02*
X113661654Y-52943685D01*
X113661654Y-52943685D02*
X113590225Y-53086542D01*
X113590225Y-53086542D02*
X113447368Y-53229400D01*
X113447368Y-53229400D02*
X113233082Y-53300828D01*
X113233082Y-53300828D02*
X112875939Y-53300828D01*
X120840225Y-51872257D02*
X120697368Y-51800828D01*
X120697368Y-51800828D02*
X120483082Y-51800828D01*
X120483082Y-51800828D02*
X120268796Y-51872257D01*
X120268796Y-51872257D02*
X120125939Y-52015114D01*
X120125939Y-52015114D02*
X120054510Y-52157971D01*
X120054510Y-52157971D02*
X119983082Y-52443685D01*
X119983082Y-52443685D02*
X119983082Y-52657971D01*
X119983082Y-52657971D02*
X120054510Y-52943685D01*
X120054510Y-52943685D02*
X120125939Y-53086542D01*
X120125939Y-53086542D02*
X120268796Y-53229400D01*
X120268796Y-53229400D02*
X120483082Y-53300828D01*
X120483082Y-53300828D02*
X120625939Y-53300828D01*
X120625939Y-53300828D02*
X120840225Y-53229400D01*
X120840225Y-53229400D02*
X120911653Y-53157971D01*
X120911653Y-53157971D02*
X120911653Y-52657971D01*
X120911653Y-52657971D02*
X120625939Y-52657971D01*
X121554510Y-53300828D02*
X121554510Y-51800828D01*
X121554510Y-51800828D02*
X122411653Y-53300828D01*
X122411653Y-53300828D02*
X122411653Y-51800828D01*
X123125939Y-53300828D02*
X123125939Y-51800828D01*
X123125939Y-51800828D02*
X123483082Y-51800828D01*
X123483082Y-51800828D02*
X123697368Y-51872257D01*
X123697368Y-51872257D02*
X123840225Y-52015114D01*
X123840225Y-52015114D02*
X123911654Y-52157971D01*
X123911654Y-52157971D02*
X123983082Y-52443685D01*
X123983082Y-52443685D02*
X123983082Y-52657971D01*
X123983082Y-52657971D02*
X123911654Y-52943685D01*
X123911654Y-52943685D02*
X123840225Y-53086542D01*
X123840225Y-53086542D02*
X123697368Y-53229400D01*
X123697368Y-53229400D02*
X123483082Y-53300828D01*
X123483082Y-53300828D02*
X123125939Y-53300828D01*
X139911653Y-150550828D02*
X139411653Y-149836542D01*
X139054510Y-150550828D02*
X139054510Y-149050828D01*
X139054510Y-149050828D02*
X139625939Y-149050828D01*
X139625939Y-149050828D02*
X139768796Y-149122257D01*
X139768796Y-149122257D02*
X139840225Y-149193685D01*
X139840225Y-149193685D02*
X139911653Y-149336542D01*
X139911653Y-149336542D02*
X139911653Y-149550828D01*
X139911653Y-149550828D02*
X139840225Y-149693685D01*
X139840225Y-149693685D02*
X139768796Y-149765114D01*
X139768796Y-149765114D02*
X139625939Y-149836542D01*
X139625939Y-149836542D02*
X139054510Y-149836542D01*
X140483082Y-150122257D02*
X141197368Y-150122257D01*
X140340225Y-150550828D02*
X140840225Y-149050828D01*
X140840225Y-149050828D02*
X141340225Y-150550828D01*
X142697367Y-150407971D02*
X142625939Y-150479400D01*
X142625939Y-150479400D02*
X142411653Y-150550828D01*
X142411653Y-150550828D02*
X142268796Y-150550828D01*
X142268796Y-150550828D02*
X142054510Y-150479400D01*
X142054510Y-150479400D02*
X141911653Y-150336542D01*
X141911653Y-150336542D02*
X141840224Y-150193685D01*
X141840224Y-150193685D02*
X141768796Y-149907971D01*
X141768796Y-149907971D02*
X141768796Y-149693685D01*
X141768796Y-149693685D02*
X141840224Y-149407971D01*
X141840224Y-149407971D02*
X141911653Y-149265114D01*
X141911653Y-149265114D02*
X142054510Y-149122257D01*
X142054510Y-149122257D02*
X142268796Y-149050828D01*
X142268796Y-149050828D02*
X142411653Y-149050828D01*
X142411653Y-149050828D02*
X142625939Y-149122257D01*
X142625939Y-149122257D02*
X142697367Y-149193685D01*
X143340224Y-150550828D02*
X143340224Y-149050828D01*
X144197367Y-150550828D02*
X143554510Y-149693685D01*
X144197367Y-149050828D02*
X143340224Y-149907971D01*
X145983081Y-150550828D02*
X145983081Y-149050828D01*
X145983081Y-149050828D02*
X146554510Y-149050828D01*
X146554510Y-149050828D02*
X146697367Y-149122257D01*
X146697367Y-149122257D02*
X146768796Y-149193685D01*
X146768796Y-149193685D02*
X146840224Y-149336542D01*
X146840224Y-149336542D02*
X146840224Y-149550828D01*
X146840224Y-149550828D02*
X146768796Y-149693685D01*
X146768796Y-149693685D02*
X146697367Y-149765114D01*
X146697367Y-149765114D02*
X146554510Y-149836542D01*
X146554510Y-149836542D02*
X145983081Y-149836542D01*
X147483081Y-150550828D02*
X147483081Y-149050828D01*
X148125939Y-150479400D02*
X148340225Y-150550828D01*
X148340225Y-150550828D02*
X148697367Y-150550828D01*
X148697367Y-150550828D02*
X148840225Y-150479400D01*
X148840225Y-150479400D02*
X148911653Y-150407971D01*
X148911653Y-150407971D02*
X148983082Y-150265114D01*
X148983082Y-150265114D02*
X148983082Y-150122257D01*
X148983082Y-150122257D02*
X148911653Y-149979400D01*
X148911653Y-149979400D02*
X148840225Y-149907971D01*
X148840225Y-149907971D02*
X148697367Y-149836542D01*
X148697367Y-149836542D02*
X148411653Y-149765114D01*
X148411653Y-149765114D02*
X148268796Y-149693685D01*
X148268796Y-149693685D02*
X148197367Y-149622257D01*
X148197367Y-149622257D02*
X148125939Y-149479400D01*
X148125939Y-149479400D02*
X148125939Y-149336542D01*
X148125939Y-149336542D02*
X148197367Y-149193685D01*
X148197367Y-149193685D02*
X148268796Y-149122257D01*
X148268796Y-149122257D02*
X148411653Y-149050828D01*
X148411653Y-149050828D02*
X148768796Y-149050828D01*
X148768796Y-149050828D02*
X148983082Y-149122257D01*
X149411653Y-149050828D02*
X150268796Y-149050828D01*
X149840224Y-150550828D02*
X149840224Y-149050828D01*
X150768795Y-149765114D02*
X151268795Y-149765114D01*
X151483081Y-150550828D02*
X150768795Y-150550828D01*
X150768795Y-150550828D02*
X150768795Y-149050828D01*
X150768795Y-149050828D02*
X151483081Y-149050828D01*
X212939638Y-117516190D02*
X210939638Y-117516190D01*
X210939638Y-117516190D02*
X210939638Y-116754285D01*
X210939638Y-116754285D02*
X211034876Y-116563809D01*
X211034876Y-116563809D02*
X211130114Y-116468571D01*
X211130114Y-116468571D02*
X211320590Y-116373333D01*
X211320590Y-116373333D02*
X211606304Y-116373333D01*
X211606304Y-116373333D02*
X211796780Y-116468571D01*
X211796780Y-116468571D02*
X211892019Y-116563809D01*
X211892019Y-116563809D02*
X211987257Y-116754285D01*
X211987257Y-116754285D02*
X211987257Y-117516190D01*
X210939638Y-115706666D02*
X210939638Y-114468571D01*
X210939638Y-114468571D02*
X211701542Y-115135238D01*
X211701542Y-115135238D02*
X211701542Y-114849523D01*
X211701542Y-114849523D02*
X211796780Y-114659047D01*
X211796780Y-114659047D02*
X211892019Y-114563809D01*
X211892019Y-114563809D02*
X212082495Y-114468571D01*
X212082495Y-114468571D02*
X212558685Y-114468571D01*
X212558685Y-114468571D02*
X212749161Y-114563809D01*
X212749161Y-114563809D02*
X212844400Y-114659047D01*
X212844400Y-114659047D02*
X212939638Y-114849523D01*
X212939638Y-114849523D02*
X212939638Y-115420952D01*
X212939638Y-115420952D02*
X212844400Y-115611428D01*
X212844400Y-115611428D02*
X212749161Y-115706666D01*
X93554510Y-45729400D02*
X94697368Y-45729400D01*
X96197368Y-46300828D02*
X95340225Y-46300828D01*
X95768796Y-46300828D02*
X95768796Y-44800828D01*
X95768796Y-44800828D02*
X95625939Y-45015114D01*
X95625939Y-45015114D02*
X95483082Y-45157971D01*
X95483082Y-45157971D02*
X95340225Y-45229400D01*
X96768796Y-44943685D02*
X96840224Y-44872257D01*
X96840224Y-44872257D02*
X96983082Y-44800828D01*
X96983082Y-44800828D02*
X97340224Y-44800828D01*
X97340224Y-44800828D02*
X97483082Y-44872257D01*
X97483082Y-44872257D02*
X97554510Y-44943685D01*
X97554510Y-44943685D02*
X97625939Y-45086542D01*
X97625939Y-45086542D02*
X97625939Y-45229400D01*
X97625939Y-45229400D02*
X97554510Y-45443685D01*
X97554510Y-45443685D02*
X96697367Y-46300828D01*
X96697367Y-46300828D02*
X97625939Y-46300828D01*
X98054510Y-44800828D02*
X98554510Y-46300828D01*
X98554510Y-46300828D02*
X99054510Y-44800828D01*
X82554510Y-45729400D02*
X83697368Y-45729400D01*
X83125939Y-46300828D02*
X83125939Y-45157971D01*
X85197368Y-46300828D02*
X84340225Y-46300828D01*
X84768796Y-46300828D02*
X84768796Y-44800828D01*
X84768796Y-44800828D02*
X84625939Y-45015114D01*
X84625939Y-45015114D02*
X84483082Y-45157971D01*
X84483082Y-45157971D02*
X84340225Y-45229400D01*
X85768796Y-44943685D02*
X85840224Y-44872257D01*
X85840224Y-44872257D02*
X85983082Y-44800828D01*
X85983082Y-44800828D02*
X86340224Y-44800828D01*
X86340224Y-44800828D02*
X86483082Y-44872257D01*
X86483082Y-44872257D02*
X86554510Y-44943685D01*
X86554510Y-44943685D02*
X86625939Y-45086542D01*
X86625939Y-45086542D02*
X86625939Y-45229400D01*
X86625939Y-45229400D02*
X86554510Y-45443685D01*
X86554510Y-45443685D02*
X85697367Y-46300828D01*
X85697367Y-46300828D02*
X86625939Y-46300828D01*
X87054510Y-44800828D02*
X87554510Y-46300828D01*
X87554510Y-46300828D02*
X88054510Y-44800828D01*
X103804510Y-45729400D02*
X104947368Y-45729400D01*
X104375939Y-46300828D02*
X104375939Y-45157971D01*
X106375939Y-44800828D02*
X105661653Y-44800828D01*
X105661653Y-44800828D02*
X105590225Y-45515114D01*
X105590225Y-45515114D02*
X105661653Y-45443685D01*
X105661653Y-45443685D02*
X105804511Y-45372257D01*
X105804511Y-45372257D02*
X106161653Y-45372257D01*
X106161653Y-45372257D02*
X106304511Y-45443685D01*
X106304511Y-45443685D02*
X106375939Y-45515114D01*
X106375939Y-45515114D02*
X106447368Y-45657971D01*
X106447368Y-45657971D02*
X106447368Y-46015114D01*
X106447368Y-46015114D02*
X106375939Y-46157971D01*
X106375939Y-46157971D02*
X106304511Y-46229400D01*
X106304511Y-46229400D02*
X106161653Y-46300828D01*
X106161653Y-46300828D02*
X105804511Y-46300828D01*
X105804511Y-46300828D02*
X105661653Y-46229400D01*
X105661653Y-46229400D02*
X105590225Y-46157971D01*
X106875939Y-44800828D02*
X107375939Y-46300828D01*
X107375939Y-46300828D02*
X107875939Y-44800828D01*
X113804510Y-45729400D02*
X114947368Y-45729400D01*
X116375939Y-44800828D02*
X115661653Y-44800828D01*
X115661653Y-44800828D02*
X115590225Y-45515114D01*
X115590225Y-45515114D02*
X115661653Y-45443685D01*
X115661653Y-45443685D02*
X115804511Y-45372257D01*
X115804511Y-45372257D02*
X116161653Y-45372257D01*
X116161653Y-45372257D02*
X116304511Y-45443685D01*
X116304511Y-45443685D02*
X116375939Y-45515114D01*
X116375939Y-45515114D02*
X116447368Y-45657971D01*
X116447368Y-45657971D02*
X116447368Y-46015114D01*
X116447368Y-46015114D02*
X116375939Y-46157971D01*
X116375939Y-46157971D02*
X116304511Y-46229400D01*
X116304511Y-46229400D02*
X116161653Y-46300828D01*
X116161653Y-46300828D02*
X115804511Y-46300828D01*
X115804511Y-46300828D02*
X115661653Y-46229400D01*
X115661653Y-46229400D02*
X115590225Y-46157971D01*
X116875939Y-44800828D02*
X117375939Y-46300828D01*
X117375939Y-46300828D02*
X117875939Y-44800828D01*
X100590225Y-51872257D02*
X100447368Y-51800828D01*
X100447368Y-51800828D02*
X100233082Y-51800828D01*
X100233082Y-51800828D02*
X100018796Y-51872257D01*
X100018796Y-51872257D02*
X99875939Y-52015114D01*
X99875939Y-52015114D02*
X99804510Y-52157971D01*
X99804510Y-52157971D02*
X99733082Y-52443685D01*
X99733082Y-52443685D02*
X99733082Y-52657971D01*
X99733082Y-52657971D02*
X99804510Y-52943685D01*
X99804510Y-52943685D02*
X99875939Y-53086542D01*
X99875939Y-53086542D02*
X100018796Y-53229400D01*
X100018796Y-53229400D02*
X100233082Y-53300828D01*
X100233082Y-53300828D02*
X100375939Y-53300828D01*
X100375939Y-53300828D02*
X100590225Y-53229400D01*
X100590225Y-53229400D02*
X100661653Y-53157971D01*
X100661653Y-53157971D02*
X100661653Y-52657971D01*
X100661653Y-52657971D02*
X100375939Y-52657971D01*
X101304510Y-53300828D02*
X101304510Y-51800828D01*
X101304510Y-51800828D02*
X102161653Y-53300828D01*
X102161653Y-53300828D02*
X102161653Y-51800828D01*
X102875939Y-53300828D02*
X102875939Y-51800828D01*
X102875939Y-51800828D02*
X103233082Y-51800828D01*
X103233082Y-51800828D02*
X103447368Y-51872257D01*
X103447368Y-51872257D02*
X103590225Y-52015114D01*
X103590225Y-52015114D02*
X103661654Y-52157971D01*
X103661654Y-52157971D02*
X103733082Y-52443685D01*
X103733082Y-52443685D02*
X103733082Y-52657971D01*
X103733082Y-52657971D02*
X103661654Y-52943685D01*
X103661654Y-52943685D02*
X103590225Y-53086542D01*
X103590225Y-53086542D02*
X103447368Y-53229400D01*
X103447368Y-53229400D02*
X103233082Y-53300828D01*
X103233082Y-53300828D02*
X102875939Y-53300828D01*
X212939638Y-84496190D02*
X210939638Y-84496190D01*
X210939638Y-84496190D02*
X210939638Y-83734285D01*
X210939638Y-83734285D02*
X211034876Y-83543809D01*
X211034876Y-83543809D02*
X211130114Y-83448571D01*
X211130114Y-83448571D02*
X211320590Y-83353333D01*
X211320590Y-83353333D02*
X211606304Y-83353333D01*
X211606304Y-83353333D02*
X211796780Y-83448571D01*
X211796780Y-83448571D02*
X211892019Y-83543809D01*
X211892019Y-83543809D02*
X211987257Y-83734285D01*
X211987257Y-83734285D02*
X211987257Y-84496190D01*
X210939638Y-81543809D02*
X210939638Y-82496190D01*
X210939638Y-82496190D02*
X211892019Y-82591428D01*
X211892019Y-82591428D02*
X211796780Y-82496190D01*
X211796780Y-82496190D02*
X211701542Y-82305714D01*
X211701542Y-82305714D02*
X211701542Y-81829523D01*
X211701542Y-81829523D02*
X211796780Y-81639047D01*
X211796780Y-81639047D02*
X211892019Y-81543809D01*
X211892019Y-81543809D02*
X212082495Y-81448571D01*
X212082495Y-81448571D02*
X212558685Y-81448571D01*
X212558685Y-81448571D02*
X212749161Y-81543809D01*
X212749161Y-81543809D02*
X212844400Y-81639047D01*
X212844400Y-81639047D02*
X212939638Y-81829523D01*
X212939638Y-81829523D02*
X212939638Y-82305714D01*
X212939638Y-82305714D02*
X212844400Y-82496190D01*
X212844400Y-82496190D02*
X212749161Y-82591428D01*
X89340225Y-51872257D02*
X89197368Y-51800828D01*
X89197368Y-51800828D02*
X88983082Y-51800828D01*
X88983082Y-51800828D02*
X88768796Y-51872257D01*
X88768796Y-51872257D02*
X88625939Y-52015114D01*
X88625939Y-52015114D02*
X88554510Y-52157971D01*
X88554510Y-52157971D02*
X88483082Y-52443685D01*
X88483082Y-52443685D02*
X88483082Y-52657971D01*
X88483082Y-52657971D02*
X88554510Y-52943685D01*
X88554510Y-52943685D02*
X88625939Y-53086542D01*
X88625939Y-53086542D02*
X88768796Y-53229400D01*
X88768796Y-53229400D02*
X88983082Y-53300828D01*
X88983082Y-53300828D02*
X89125939Y-53300828D01*
X89125939Y-53300828D02*
X89340225Y-53229400D01*
X89340225Y-53229400D02*
X89411653Y-53157971D01*
X89411653Y-53157971D02*
X89411653Y-52657971D01*
X89411653Y-52657971D02*
X89125939Y-52657971D01*
X90054510Y-53300828D02*
X90054510Y-51800828D01*
X90054510Y-51800828D02*
X90911653Y-53300828D01*
X90911653Y-53300828D02*
X90911653Y-51800828D01*
X91625939Y-53300828D02*
X91625939Y-51800828D01*
X91625939Y-51800828D02*
X91983082Y-51800828D01*
X91983082Y-51800828D02*
X92197368Y-51872257D01*
X92197368Y-51872257D02*
X92340225Y-52015114D01*
X92340225Y-52015114D02*
X92411654Y-52157971D01*
X92411654Y-52157971D02*
X92483082Y-52443685D01*
X92483082Y-52443685D02*
X92483082Y-52657971D01*
X92483082Y-52657971D02*
X92411654Y-52943685D01*
X92411654Y-52943685D02*
X92340225Y-53086542D01*
X92340225Y-53086542D02*
X92197368Y-53229400D01*
X92197368Y-53229400D02*
X91983082Y-53300828D01*
X91983082Y-53300828D02*
X91625939Y-53300828D01*
D12*
X228843333Y-121334819D02*
X228510000Y-120858628D01*
X228271905Y-121334819D02*
X228271905Y-120334819D01*
X228271905Y-120334819D02*
X228652857Y-120334819D01*
X228652857Y-120334819D02*
X228748095Y-120382438D01*
X228748095Y-120382438D02*
X228795714Y-120430057D01*
X228795714Y-120430057D02*
X228843333Y-120525295D01*
X228843333Y-120525295D02*
X228843333Y-120668152D01*
X228843333Y-120668152D02*
X228795714Y-120763390D01*
X228795714Y-120763390D02*
X228748095Y-120811009D01*
X228748095Y-120811009D02*
X228652857Y-120858628D01*
X228652857Y-120858628D02*
X228271905Y-120858628D01*
X229748095Y-120334819D02*
X229271905Y-120334819D01*
X229271905Y-120334819D02*
X229224286Y-120811009D01*
X229224286Y-120811009D02*
X229271905Y-120763390D01*
X229271905Y-120763390D02*
X229367143Y-120715771D01*
X229367143Y-120715771D02*
X229605238Y-120715771D01*
X229605238Y-120715771D02*
X229700476Y-120763390D01*
X229700476Y-120763390D02*
X229748095Y-120811009D01*
X229748095Y-120811009D02*
X229795714Y-120906247D01*
X229795714Y-120906247D02*
X229795714Y-121144342D01*
X229795714Y-121144342D02*
X229748095Y-121239580D01*
X229748095Y-121239580D02*
X229700476Y-121287200D01*
X229700476Y-121287200D02*
X229605238Y-121334819D01*
X229605238Y-121334819D02*
X229367143Y-121334819D01*
X229367143Y-121334819D02*
X229271905Y-121287200D01*
X229271905Y-121287200D02*
X229224286Y-121239580D01*
X204107142Y-86954819D02*
X203773809Y-86478628D01*
X203535714Y-86954819D02*
X203535714Y-85954819D01*
X203535714Y-85954819D02*
X203916666Y-85954819D01*
X203916666Y-85954819D02*
X204011904Y-86002438D01*
X204011904Y-86002438D02*
X204059523Y-86050057D01*
X204059523Y-86050057D02*
X204107142Y-86145295D01*
X204107142Y-86145295D02*
X204107142Y-86288152D01*
X204107142Y-86288152D02*
X204059523Y-86383390D01*
X204059523Y-86383390D02*
X204011904Y-86431009D01*
X204011904Y-86431009D02*
X203916666Y-86478628D01*
X203916666Y-86478628D02*
X203535714Y-86478628D01*
X205059523Y-86954819D02*
X204488095Y-86954819D01*
X204773809Y-86954819D02*
X204773809Y-85954819D01*
X204773809Y-85954819D02*
X204678571Y-86097676D01*
X204678571Y-86097676D02*
X204583333Y-86192914D01*
X204583333Y-86192914D02*
X204488095Y-86240533D01*
X205916666Y-85954819D02*
X205726190Y-85954819D01*
X205726190Y-85954819D02*
X205630952Y-86002438D01*
X205630952Y-86002438D02*
X205583333Y-86050057D01*
X205583333Y-86050057D02*
X205488095Y-86192914D01*
X205488095Y-86192914D02*
X205440476Y-86383390D01*
X205440476Y-86383390D02*
X205440476Y-86764342D01*
X205440476Y-86764342D02*
X205488095Y-86859580D01*
X205488095Y-86859580D02*
X205535714Y-86907200D01*
X205535714Y-86907200D02*
X205630952Y-86954819D01*
X205630952Y-86954819D02*
X205821428Y-86954819D01*
X205821428Y-86954819D02*
X205916666Y-86907200D01*
X205916666Y-86907200D02*
X205964285Y-86859580D01*
X205964285Y-86859580D02*
X206011904Y-86764342D01*
X206011904Y-86764342D02*
X206011904Y-86526247D01*
X206011904Y-86526247D02*
X205964285Y-86431009D01*
X205964285Y-86431009D02*
X205916666Y-86383390D01*
X205916666Y-86383390D02*
X205821428Y-86335771D01*
X205821428Y-86335771D02*
X205630952Y-86335771D01*
X205630952Y-86335771D02*
X205535714Y-86383390D01*
X205535714Y-86383390D02*
X205488095Y-86431009D01*
X205488095Y-86431009D02*
X205440476Y-86526247D01*
X189398652Y-64199650D02*
X189351033Y-64247270D01*
X189351033Y-64247270D02*
X189208176Y-64294889D01*
X189208176Y-64294889D02*
X189112938Y-64294889D01*
X189112938Y-64294889D02*
X188970081Y-64247270D01*
X188970081Y-64247270D02*
X188874843Y-64152031D01*
X188874843Y-64152031D02*
X188827224Y-64056793D01*
X188827224Y-64056793D02*
X188779605Y-63866317D01*
X188779605Y-63866317D02*
X188779605Y-63723460D01*
X188779605Y-63723460D02*
X188827224Y-63532984D01*
X188827224Y-63532984D02*
X188874843Y-63437746D01*
X188874843Y-63437746D02*
X188970081Y-63342508D01*
X188970081Y-63342508D02*
X189112938Y-63294889D01*
X189112938Y-63294889D02*
X189208176Y-63294889D01*
X189208176Y-63294889D02*
X189351033Y-63342508D01*
X189351033Y-63342508D02*
X189398652Y-63390127D01*
X190255795Y-63628222D02*
X190255795Y-64294889D01*
X190017700Y-63247270D02*
X189779605Y-63961555D01*
X189779605Y-63961555D02*
X190398652Y-63961555D01*
X159833333Y-81859580D02*
X159785714Y-81907200D01*
X159785714Y-81907200D02*
X159642857Y-81954819D01*
X159642857Y-81954819D02*
X159547619Y-81954819D01*
X159547619Y-81954819D02*
X159404762Y-81907200D01*
X159404762Y-81907200D02*
X159309524Y-81811961D01*
X159309524Y-81811961D02*
X159261905Y-81716723D01*
X159261905Y-81716723D02*
X159214286Y-81526247D01*
X159214286Y-81526247D02*
X159214286Y-81383390D01*
X159214286Y-81383390D02*
X159261905Y-81192914D01*
X159261905Y-81192914D02*
X159309524Y-81097676D01*
X159309524Y-81097676D02*
X159404762Y-81002438D01*
X159404762Y-81002438D02*
X159547619Y-80954819D01*
X159547619Y-80954819D02*
X159642857Y-80954819D01*
X159642857Y-80954819D02*
X159785714Y-81002438D01*
X159785714Y-81002438D02*
X159833333Y-81050057D01*
X160214286Y-81050057D02*
X160261905Y-81002438D01*
X160261905Y-81002438D02*
X160357143Y-80954819D01*
X160357143Y-80954819D02*
X160595238Y-80954819D01*
X160595238Y-80954819D02*
X160690476Y-81002438D01*
X160690476Y-81002438D02*
X160738095Y-81050057D01*
X160738095Y-81050057D02*
X160785714Y-81145295D01*
X160785714Y-81145295D02*
X160785714Y-81240533D01*
X160785714Y-81240533D02*
X160738095Y-81383390D01*
X160738095Y-81383390D02*
X160166667Y-81954819D01*
X160166667Y-81954819D02*
X160785714Y-81954819D01*
X118623866Y-62928213D02*
X118623866Y-62166309D01*
X118004819Y-61213928D02*
X118004819Y-61690118D01*
X118004819Y-61690118D02*
X118481009Y-61737737D01*
X118481009Y-61737737D02*
X118433390Y-61690118D01*
X118433390Y-61690118D02*
X118385771Y-61594880D01*
X118385771Y-61594880D02*
X118385771Y-61356785D01*
X118385771Y-61356785D02*
X118433390Y-61261547D01*
X118433390Y-61261547D02*
X118481009Y-61213928D01*
X118481009Y-61213928D02*
X118576247Y-61166309D01*
X118576247Y-61166309D02*
X118814342Y-61166309D01*
X118814342Y-61166309D02*
X118909580Y-61213928D01*
X118909580Y-61213928D02*
X118957200Y-61261547D01*
X118957200Y-61261547D02*
X119004819Y-61356785D01*
X119004819Y-61356785D02*
X119004819Y-61594880D01*
X119004819Y-61594880D02*
X118957200Y-61690118D01*
X118957200Y-61690118D02*
X118909580Y-61737737D01*
X118004819Y-60880594D02*
X119004819Y-60547261D01*
X119004819Y-60547261D02*
X118004819Y-60213928D01*
X108844819Y-66570357D02*
X108368628Y-66903690D01*
X108844819Y-67141785D02*
X107844819Y-67141785D01*
X107844819Y-67141785D02*
X107844819Y-66760833D01*
X107844819Y-66760833D02*
X107892438Y-66665595D01*
X107892438Y-66665595D02*
X107940057Y-66617976D01*
X107940057Y-66617976D02*
X108035295Y-66570357D01*
X108035295Y-66570357D02*
X108178152Y-66570357D01*
X108178152Y-66570357D02*
X108273390Y-66617976D01*
X108273390Y-66617976D02*
X108321009Y-66665595D01*
X108321009Y-66665595D02*
X108368628Y-66760833D01*
X108368628Y-66760833D02*
X108368628Y-67141785D01*
X107940057Y-66189404D02*
X107892438Y-66141785D01*
X107892438Y-66141785D02*
X107844819Y-66046547D01*
X107844819Y-66046547D02*
X107844819Y-65808452D01*
X107844819Y-65808452D02*
X107892438Y-65713214D01*
X107892438Y-65713214D02*
X107940057Y-65665595D01*
X107940057Y-65665595D02*
X108035295Y-65617976D01*
X108035295Y-65617976D02*
X108130533Y-65617976D01*
X108130533Y-65617976D02*
X108273390Y-65665595D01*
X108273390Y-65665595D02*
X108844819Y-66237023D01*
X108844819Y-66237023D02*
X108844819Y-65617976D01*
X107844819Y-64713214D02*
X107844819Y-65189404D01*
X107844819Y-65189404D02*
X108321009Y-65237023D01*
X108321009Y-65237023D02*
X108273390Y-65189404D01*
X108273390Y-65189404D02*
X108225771Y-65094166D01*
X108225771Y-65094166D02*
X108225771Y-64856071D01*
X108225771Y-64856071D02*
X108273390Y-64760833D01*
X108273390Y-64760833D02*
X108321009Y-64713214D01*
X108321009Y-64713214D02*
X108416247Y-64665595D01*
X108416247Y-64665595D02*
X108654342Y-64665595D01*
X108654342Y-64665595D02*
X108749580Y-64713214D01*
X108749580Y-64713214D02*
X108797200Y-64760833D01*
X108797200Y-64760833D02*
X108844819Y-64856071D01*
X108844819Y-64856071D02*
X108844819Y-65094166D01*
X108844819Y-65094166D02*
X108797200Y-65189404D01*
X108797200Y-65189404D02*
X108749580Y-65237023D01*
X209942142Y-92884819D02*
X209608809Y-92408628D01*
X209370714Y-92884819D02*
X209370714Y-91884819D01*
X209370714Y-91884819D02*
X209751666Y-91884819D01*
X209751666Y-91884819D02*
X209846904Y-91932438D01*
X209846904Y-91932438D02*
X209894523Y-91980057D01*
X209894523Y-91980057D02*
X209942142Y-92075295D01*
X209942142Y-92075295D02*
X209942142Y-92218152D01*
X209942142Y-92218152D02*
X209894523Y-92313390D01*
X209894523Y-92313390D02*
X209846904Y-92361009D01*
X209846904Y-92361009D02*
X209751666Y-92408628D01*
X209751666Y-92408628D02*
X209370714Y-92408628D01*
X210894523Y-92884819D02*
X210323095Y-92884819D01*
X210608809Y-92884819D02*
X210608809Y-91884819D01*
X210608809Y-91884819D02*
X210513571Y-92027676D01*
X210513571Y-92027676D02*
X210418333Y-92122914D01*
X210418333Y-92122914D02*
X210323095Y-92170533D01*
X211513571Y-91884819D02*
X211608809Y-91884819D01*
X211608809Y-91884819D02*
X211704047Y-91932438D01*
X211704047Y-91932438D02*
X211751666Y-91980057D01*
X211751666Y-91980057D02*
X211799285Y-92075295D01*
X211799285Y-92075295D02*
X211846904Y-92265771D01*
X211846904Y-92265771D02*
X211846904Y-92503866D01*
X211846904Y-92503866D02*
X211799285Y-92694342D01*
X211799285Y-92694342D02*
X211751666Y-92789580D01*
X211751666Y-92789580D02*
X211704047Y-92837200D01*
X211704047Y-92837200D02*
X211608809Y-92884819D01*
X211608809Y-92884819D02*
X211513571Y-92884819D01*
X211513571Y-92884819D02*
X211418333Y-92837200D01*
X211418333Y-92837200D02*
X211370714Y-92789580D01*
X211370714Y-92789580D02*
X211323095Y-92694342D01*
X211323095Y-92694342D02*
X211275476Y-92503866D01*
X211275476Y-92503866D02*
X211275476Y-92265771D01*
X211275476Y-92265771D02*
X211323095Y-92075295D01*
X211323095Y-92075295D02*
X211370714Y-91980057D01*
X211370714Y-91980057D02*
X211418333Y-91932438D01*
X211418333Y-91932438D02*
X211513571Y-91884819D01*
X166804819Y-60605357D02*
X166328628Y-60938690D01*
X166804819Y-61176785D02*
X165804819Y-61176785D01*
X165804819Y-61176785D02*
X165804819Y-60795833D01*
X165804819Y-60795833D02*
X165852438Y-60700595D01*
X165852438Y-60700595D02*
X165900057Y-60652976D01*
X165900057Y-60652976D02*
X165995295Y-60605357D01*
X165995295Y-60605357D02*
X166138152Y-60605357D01*
X166138152Y-60605357D02*
X166233390Y-60652976D01*
X166233390Y-60652976D02*
X166281009Y-60700595D01*
X166281009Y-60700595D02*
X166328628Y-60795833D01*
X166328628Y-60795833D02*
X166328628Y-61176785D01*
X165900057Y-60224404D02*
X165852438Y-60176785D01*
X165852438Y-60176785D02*
X165804819Y-60081547D01*
X165804819Y-60081547D02*
X165804819Y-59843452D01*
X165804819Y-59843452D02*
X165852438Y-59748214D01*
X165852438Y-59748214D02*
X165900057Y-59700595D01*
X165900057Y-59700595D02*
X165995295Y-59652976D01*
X165995295Y-59652976D02*
X166090533Y-59652976D01*
X166090533Y-59652976D02*
X166233390Y-59700595D01*
X166233390Y-59700595D02*
X166804819Y-60272023D01*
X166804819Y-60272023D02*
X166804819Y-59652976D01*
X165900057Y-59272023D02*
X165852438Y-59224404D01*
X165852438Y-59224404D02*
X165804819Y-59129166D01*
X165804819Y-59129166D02*
X165804819Y-58891071D01*
X165804819Y-58891071D02*
X165852438Y-58795833D01*
X165852438Y-58795833D02*
X165900057Y-58748214D01*
X165900057Y-58748214D02*
X165995295Y-58700595D01*
X165995295Y-58700595D02*
X166090533Y-58700595D01*
X166090533Y-58700595D02*
X166233390Y-58748214D01*
X166233390Y-58748214D02*
X166804819Y-59319642D01*
X166804819Y-59319642D02*
X166804819Y-58700595D01*
X238357142Y-88704819D02*
X238023809Y-88228628D01*
X237785714Y-88704819D02*
X237785714Y-87704819D01*
X237785714Y-87704819D02*
X238166666Y-87704819D01*
X238166666Y-87704819D02*
X238261904Y-87752438D01*
X238261904Y-87752438D02*
X238309523Y-87800057D01*
X238309523Y-87800057D02*
X238357142Y-87895295D01*
X238357142Y-87895295D02*
X238357142Y-88038152D01*
X238357142Y-88038152D02*
X238309523Y-88133390D01*
X238309523Y-88133390D02*
X238261904Y-88181009D01*
X238261904Y-88181009D02*
X238166666Y-88228628D01*
X238166666Y-88228628D02*
X237785714Y-88228628D01*
X239309523Y-88704819D02*
X238738095Y-88704819D01*
X239023809Y-88704819D02*
X239023809Y-87704819D01*
X239023809Y-87704819D02*
X238928571Y-87847676D01*
X238928571Y-87847676D02*
X238833333Y-87942914D01*
X238833333Y-87942914D02*
X238738095Y-87990533D01*
X240166666Y-88038152D02*
X240166666Y-88704819D01*
X239928571Y-87657200D02*
X239690476Y-88371485D01*
X239690476Y-88371485D02*
X240309523Y-88371485D01*
X119004819Y-66570357D02*
X118528628Y-66903690D01*
X119004819Y-67141785D02*
X118004819Y-67141785D01*
X118004819Y-67141785D02*
X118004819Y-66760833D01*
X118004819Y-66760833D02*
X118052438Y-66665595D01*
X118052438Y-66665595D02*
X118100057Y-66617976D01*
X118100057Y-66617976D02*
X118195295Y-66570357D01*
X118195295Y-66570357D02*
X118338152Y-66570357D01*
X118338152Y-66570357D02*
X118433390Y-66617976D01*
X118433390Y-66617976D02*
X118481009Y-66665595D01*
X118481009Y-66665595D02*
X118528628Y-66760833D01*
X118528628Y-66760833D02*
X118528628Y-67141785D01*
X118100057Y-66189404D02*
X118052438Y-66141785D01*
X118052438Y-66141785D02*
X118004819Y-66046547D01*
X118004819Y-66046547D02*
X118004819Y-65808452D01*
X118004819Y-65808452D02*
X118052438Y-65713214D01*
X118052438Y-65713214D02*
X118100057Y-65665595D01*
X118100057Y-65665595D02*
X118195295Y-65617976D01*
X118195295Y-65617976D02*
X118290533Y-65617976D01*
X118290533Y-65617976D02*
X118433390Y-65665595D01*
X118433390Y-65665595D02*
X119004819Y-66237023D01*
X119004819Y-66237023D02*
X119004819Y-65617976D01*
X118433390Y-65046547D02*
X118385771Y-65141785D01*
X118385771Y-65141785D02*
X118338152Y-65189404D01*
X118338152Y-65189404D02*
X118242914Y-65237023D01*
X118242914Y-65237023D02*
X118195295Y-65237023D01*
X118195295Y-65237023D02*
X118100057Y-65189404D01*
X118100057Y-65189404D02*
X118052438Y-65141785D01*
X118052438Y-65141785D02*
X118004819Y-65046547D01*
X118004819Y-65046547D02*
X118004819Y-64856071D01*
X118004819Y-64856071D02*
X118052438Y-64760833D01*
X118052438Y-64760833D02*
X118100057Y-64713214D01*
X118100057Y-64713214D02*
X118195295Y-64665595D01*
X118195295Y-64665595D02*
X118242914Y-64665595D01*
X118242914Y-64665595D02*
X118338152Y-64713214D01*
X118338152Y-64713214D02*
X118385771Y-64760833D01*
X118385771Y-64760833D02*
X118433390Y-64856071D01*
X118433390Y-64856071D02*
X118433390Y-65046547D01*
X118433390Y-65046547D02*
X118481009Y-65141785D01*
X118481009Y-65141785D02*
X118528628Y-65189404D01*
X118528628Y-65189404D02*
X118623866Y-65237023D01*
X118623866Y-65237023D02*
X118814342Y-65237023D01*
X118814342Y-65237023D02*
X118909580Y-65189404D01*
X118909580Y-65189404D02*
X118957200Y-65141785D01*
X118957200Y-65141785D02*
X119004819Y-65046547D01*
X119004819Y-65046547D02*
X119004819Y-64856071D01*
X119004819Y-64856071D02*
X118957200Y-64760833D01*
X118957200Y-64760833D02*
X118909580Y-64713214D01*
X118909580Y-64713214D02*
X118814342Y-64665595D01*
X118814342Y-64665595D02*
X118623866Y-64665595D01*
X118623866Y-64665595D02*
X118528628Y-64713214D01*
X118528628Y-64713214D02*
X118481009Y-64760833D01*
X118481009Y-64760833D02*
X118433390Y-64856071D01*
X159804819Y-60605357D02*
X159328628Y-60938690D01*
X159804819Y-61176785D02*
X158804819Y-61176785D01*
X158804819Y-61176785D02*
X158804819Y-60795833D01*
X158804819Y-60795833D02*
X158852438Y-60700595D01*
X158852438Y-60700595D02*
X158900057Y-60652976D01*
X158900057Y-60652976D02*
X158995295Y-60605357D01*
X158995295Y-60605357D02*
X159138152Y-60605357D01*
X159138152Y-60605357D02*
X159233390Y-60652976D01*
X159233390Y-60652976D02*
X159281009Y-60700595D01*
X159281009Y-60700595D02*
X159328628Y-60795833D01*
X159328628Y-60795833D02*
X159328628Y-61176785D01*
X158900057Y-60224404D02*
X158852438Y-60176785D01*
X158852438Y-60176785D02*
X158804819Y-60081547D01*
X158804819Y-60081547D02*
X158804819Y-59843452D01*
X158804819Y-59843452D02*
X158852438Y-59748214D01*
X158852438Y-59748214D02*
X158900057Y-59700595D01*
X158900057Y-59700595D02*
X158995295Y-59652976D01*
X158995295Y-59652976D02*
X159090533Y-59652976D01*
X159090533Y-59652976D02*
X159233390Y-59700595D01*
X159233390Y-59700595D02*
X159804819Y-60272023D01*
X159804819Y-60272023D02*
X159804819Y-59652976D01*
X158804819Y-59319642D02*
X158804819Y-58700595D01*
X158804819Y-58700595D02*
X159185771Y-59033928D01*
X159185771Y-59033928D02*
X159185771Y-58891071D01*
X159185771Y-58891071D02*
X159233390Y-58795833D01*
X159233390Y-58795833D02*
X159281009Y-58748214D01*
X159281009Y-58748214D02*
X159376247Y-58700595D01*
X159376247Y-58700595D02*
X159614342Y-58700595D01*
X159614342Y-58700595D02*
X159709580Y-58748214D01*
X159709580Y-58748214D02*
X159757200Y-58795833D01*
X159757200Y-58795833D02*
X159804819Y-58891071D01*
X159804819Y-58891071D02*
X159804819Y-59176785D01*
X159804819Y-59176785D02*
X159757200Y-59272023D01*
X159757200Y-59272023D02*
X159709580Y-59319642D01*
X162804819Y-54605357D02*
X162328628Y-54938690D01*
X162804819Y-55176785D02*
X161804819Y-55176785D01*
X161804819Y-55176785D02*
X161804819Y-54795833D01*
X161804819Y-54795833D02*
X161852438Y-54700595D01*
X161852438Y-54700595D02*
X161900057Y-54652976D01*
X161900057Y-54652976D02*
X161995295Y-54605357D01*
X161995295Y-54605357D02*
X162138152Y-54605357D01*
X162138152Y-54605357D02*
X162233390Y-54652976D01*
X162233390Y-54652976D02*
X162281009Y-54700595D01*
X162281009Y-54700595D02*
X162328628Y-54795833D01*
X162328628Y-54795833D02*
X162328628Y-55176785D01*
X161804819Y-54272023D02*
X161804819Y-53652976D01*
X161804819Y-53652976D02*
X162185771Y-53986309D01*
X162185771Y-53986309D02*
X162185771Y-53843452D01*
X162185771Y-53843452D02*
X162233390Y-53748214D01*
X162233390Y-53748214D02*
X162281009Y-53700595D01*
X162281009Y-53700595D02*
X162376247Y-53652976D01*
X162376247Y-53652976D02*
X162614342Y-53652976D01*
X162614342Y-53652976D02*
X162709580Y-53700595D01*
X162709580Y-53700595D02*
X162757200Y-53748214D01*
X162757200Y-53748214D02*
X162804819Y-53843452D01*
X162804819Y-53843452D02*
X162804819Y-54129166D01*
X162804819Y-54129166D02*
X162757200Y-54224404D01*
X162757200Y-54224404D02*
X162709580Y-54272023D01*
X162804819Y-52700595D02*
X162804819Y-53272023D01*
X162804819Y-52986309D02*
X161804819Y-52986309D01*
X161804819Y-52986309D02*
X161947676Y-53081547D01*
X161947676Y-53081547D02*
X162042914Y-53176785D01*
X162042914Y-53176785D02*
X162090533Y-53272023D01*
X174804819Y-54605357D02*
X174328628Y-54938690D01*
X174804819Y-55176785D02*
X173804819Y-55176785D01*
X173804819Y-55176785D02*
X173804819Y-54795833D01*
X173804819Y-54795833D02*
X173852438Y-54700595D01*
X173852438Y-54700595D02*
X173900057Y-54652976D01*
X173900057Y-54652976D02*
X173995295Y-54605357D01*
X173995295Y-54605357D02*
X174138152Y-54605357D01*
X174138152Y-54605357D02*
X174233390Y-54652976D01*
X174233390Y-54652976D02*
X174281009Y-54700595D01*
X174281009Y-54700595D02*
X174328628Y-54795833D01*
X174328628Y-54795833D02*
X174328628Y-55176785D01*
X173900057Y-54224404D02*
X173852438Y-54176785D01*
X173852438Y-54176785D02*
X173804819Y-54081547D01*
X173804819Y-54081547D02*
X173804819Y-53843452D01*
X173804819Y-53843452D02*
X173852438Y-53748214D01*
X173852438Y-53748214D02*
X173900057Y-53700595D01*
X173900057Y-53700595D02*
X173995295Y-53652976D01*
X173995295Y-53652976D02*
X174090533Y-53652976D01*
X174090533Y-53652976D02*
X174233390Y-53700595D01*
X174233390Y-53700595D02*
X174804819Y-54272023D01*
X174804819Y-54272023D02*
X174804819Y-53652976D01*
X173804819Y-53319642D02*
X173804819Y-52652976D01*
X173804819Y-52652976D02*
X174804819Y-53081547D01*
X189366139Y-68695842D02*
X189318520Y-68743462D01*
X189318520Y-68743462D02*
X189175663Y-68791081D01*
X189175663Y-68791081D02*
X189080425Y-68791081D01*
X189080425Y-68791081D02*
X188937568Y-68743462D01*
X188937568Y-68743462D02*
X188842330Y-68648223D01*
X188842330Y-68648223D02*
X188794711Y-68552985D01*
X188794711Y-68552985D02*
X188747092Y-68362509D01*
X188747092Y-68362509D02*
X188747092Y-68219652D01*
X188747092Y-68219652D02*
X188794711Y-68029176D01*
X188794711Y-68029176D02*
X188842330Y-67933938D01*
X188842330Y-67933938D02*
X188937568Y-67838700D01*
X188937568Y-67838700D02*
X189080425Y-67791081D01*
X189080425Y-67791081D02*
X189175663Y-67791081D01*
X189175663Y-67791081D02*
X189318520Y-67838700D01*
X189318520Y-67838700D02*
X189366139Y-67886319D01*
X190318520Y-68791081D02*
X189747092Y-68791081D01*
X190032806Y-68791081D02*
X190032806Y-67791081D01*
X190032806Y-67791081D02*
X189937568Y-67933938D01*
X189937568Y-67933938D02*
X189842330Y-68029176D01*
X189842330Y-68029176D02*
X189747092Y-68076795D01*
X171304819Y-60605357D02*
X170828628Y-60938690D01*
X171304819Y-61176785D02*
X170304819Y-61176785D01*
X170304819Y-61176785D02*
X170304819Y-60795833D01*
X170304819Y-60795833D02*
X170352438Y-60700595D01*
X170352438Y-60700595D02*
X170400057Y-60652976D01*
X170400057Y-60652976D02*
X170495295Y-60605357D01*
X170495295Y-60605357D02*
X170638152Y-60605357D01*
X170638152Y-60605357D02*
X170733390Y-60652976D01*
X170733390Y-60652976D02*
X170781009Y-60700595D01*
X170781009Y-60700595D02*
X170828628Y-60795833D01*
X170828628Y-60795833D02*
X170828628Y-61176785D01*
X170400057Y-60224404D02*
X170352438Y-60176785D01*
X170352438Y-60176785D02*
X170304819Y-60081547D01*
X170304819Y-60081547D02*
X170304819Y-59843452D01*
X170304819Y-59843452D02*
X170352438Y-59748214D01*
X170352438Y-59748214D02*
X170400057Y-59700595D01*
X170400057Y-59700595D02*
X170495295Y-59652976D01*
X170495295Y-59652976D02*
X170590533Y-59652976D01*
X170590533Y-59652976D02*
X170733390Y-59700595D01*
X170733390Y-59700595D02*
X171304819Y-60272023D01*
X171304819Y-60272023D02*
X171304819Y-59652976D01*
X171304819Y-58700595D02*
X171304819Y-59272023D01*
X171304819Y-58986309D02*
X170304819Y-58986309D01*
X170304819Y-58986309D02*
X170447676Y-59081547D01*
X170447676Y-59081547D02*
X170542914Y-59176785D01*
X170542914Y-59176785D02*
X170590533Y-59272023D01*
X155804819Y-60605357D02*
X155328628Y-60938690D01*
X155804819Y-61176785D02*
X154804819Y-61176785D01*
X154804819Y-61176785D02*
X154804819Y-60795833D01*
X154804819Y-60795833D02*
X154852438Y-60700595D01*
X154852438Y-60700595D02*
X154900057Y-60652976D01*
X154900057Y-60652976D02*
X154995295Y-60605357D01*
X154995295Y-60605357D02*
X155138152Y-60605357D01*
X155138152Y-60605357D02*
X155233390Y-60652976D01*
X155233390Y-60652976D02*
X155281009Y-60700595D01*
X155281009Y-60700595D02*
X155328628Y-60795833D01*
X155328628Y-60795833D02*
X155328628Y-61176785D01*
X154900057Y-60224404D02*
X154852438Y-60176785D01*
X154852438Y-60176785D02*
X154804819Y-60081547D01*
X154804819Y-60081547D02*
X154804819Y-59843452D01*
X154804819Y-59843452D02*
X154852438Y-59748214D01*
X154852438Y-59748214D02*
X154900057Y-59700595D01*
X154900057Y-59700595D02*
X154995295Y-59652976D01*
X154995295Y-59652976D02*
X155090533Y-59652976D01*
X155090533Y-59652976D02*
X155233390Y-59700595D01*
X155233390Y-59700595D02*
X155804819Y-60272023D01*
X155804819Y-60272023D02*
X155804819Y-59652976D01*
X155138152Y-58795833D02*
X155804819Y-58795833D01*
X154757200Y-59033928D02*
X155471485Y-59272023D01*
X155471485Y-59272023D02*
X155471485Y-58652976D01*
X204843333Y-92884819D02*
X204510000Y-92408628D01*
X204271905Y-92884819D02*
X204271905Y-91884819D01*
X204271905Y-91884819D02*
X204652857Y-91884819D01*
X204652857Y-91884819D02*
X204748095Y-91932438D01*
X204748095Y-91932438D02*
X204795714Y-91980057D01*
X204795714Y-91980057D02*
X204843333Y-92075295D01*
X204843333Y-92075295D02*
X204843333Y-92218152D01*
X204843333Y-92218152D02*
X204795714Y-92313390D01*
X204795714Y-92313390D02*
X204748095Y-92361009D01*
X204748095Y-92361009D02*
X204652857Y-92408628D01*
X204652857Y-92408628D02*
X204271905Y-92408628D01*
X205319524Y-92884819D02*
X205510000Y-92884819D01*
X205510000Y-92884819D02*
X205605238Y-92837200D01*
X205605238Y-92837200D02*
X205652857Y-92789580D01*
X205652857Y-92789580D02*
X205748095Y-92646723D01*
X205748095Y-92646723D02*
X205795714Y-92456247D01*
X205795714Y-92456247D02*
X205795714Y-92075295D01*
X205795714Y-92075295D02*
X205748095Y-91980057D01*
X205748095Y-91980057D02*
X205700476Y-91932438D01*
X205700476Y-91932438D02*
X205605238Y-91884819D01*
X205605238Y-91884819D02*
X205414762Y-91884819D01*
X205414762Y-91884819D02*
X205319524Y-91932438D01*
X205319524Y-91932438D02*
X205271905Y-91980057D01*
X205271905Y-91980057D02*
X205224286Y-92075295D01*
X205224286Y-92075295D02*
X205224286Y-92313390D01*
X205224286Y-92313390D02*
X205271905Y-92408628D01*
X205271905Y-92408628D02*
X205319524Y-92456247D01*
X205319524Y-92456247D02*
X205414762Y-92503866D01*
X205414762Y-92503866D02*
X205605238Y-92503866D01*
X205605238Y-92503866D02*
X205700476Y-92456247D01*
X205700476Y-92456247D02*
X205748095Y-92408628D01*
X205748095Y-92408628D02*
X205795714Y-92313390D01*
X209857142Y-87204819D02*
X209523809Y-86728628D01*
X209285714Y-87204819D02*
X209285714Y-86204819D01*
X209285714Y-86204819D02*
X209666666Y-86204819D01*
X209666666Y-86204819D02*
X209761904Y-86252438D01*
X209761904Y-86252438D02*
X209809523Y-86300057D01*
X209809523Y-86300057D02*
X209857142Y-86395295D01*
X209857142Y-86395295D02*
X209857142Y-86538152D01*
X209857142Y-86538152D02*
X209809523Y-86633390D01*
X209809523Y-86633390D02*
X209761904Y-86681009D01*
X209761904Y-86681009D02*
X209666666Y-86728628D01*
X209666666Y-86728628D02*
X209285714Y-86728628D01*
X210809523Y-87204819D02*
X210238095Y-87204819D01*
X210523809Y-87204819D02*
X210523809Y-86204819D01*
X210523809Y-86204819D02*
X210428571Y-86347676D01*
X210428571Y-86347676D02*
X210333333Y-86442914D01*
X210333333Y-86442914D02*
X210238095Y-86490533D01*
X211714285Y-86204819D02*
X211238095Y-86204819D01*
X211238095Y-86204819D02*
X211190476Y-86681009D01*
X211190476Y-86681009D02*
X211238095Y-86633390D01*
X211238095Y-86633390D02*
X211333333Y-86585771D01*
X211333333Y-86585771D02*
X211571428Y-86585771D01*
X211571428Y-86585771D02*
X211666666Y-86633390D01*
X211666666Y-86633390D02*
X211714285Y-86681009D01*
X211714285Y-86681009D02*
X211761904Y-86776247D01*
X211761904Y-86776247D02*
X211761904Y-87014342D01*
X211761904Y-87014342D02*
X211714285Y-87109580D01*
X211714285Y-87109580D02*
X211666666Y-87157200D01*
X211666666Y-87157200D02*
X211571428Y-87204819D01*
X211571428Y-87204819D02*
X211333333Y-87204819D01*
X211333333Y-87204819D02*
X211238095Y-87157200D01*
X211238095Y-87157200D02*
X211190476Y-87109580D01*
X227583333Y-86204819D02*
X227250000Y-85728628D01*
X227011905Y-86204819D02*
X227011905Y-85204819D01*
X227011905Y-85204819D02*
X227392857Y-85204819D01*
X227392857Y-85204819D02*
X227488095Y-85252438D01*
X227488095Y-85252438D02*
X227535714Y-85300057D01*
X227535714Y-85300057D02*
X227583333Y-85395295D01*
X227583333Y-85395295D02*
X227583333Y-85538152D01*
X227583333Y-85538152D02*
X227535714Y-85633390D01*
X227535714Y-85633390D02*
X227488095Y-85681009D01*
X227488095Y-85681009D02*
X227392857Y-85728628D01*
X227392857Y-85728628D02*
X227011905Y-85728628D01*
X228154762Y-85633390D02*
X228059524Y-85585771D01*
X228059524Y-85585771D02*
X228011905Y-85538152D01*
X228011905Y-85538152D02*
X227964286Y-85442914D01*
X227964286Y-85442914D02*
X227964286Y-85395295D01*
X227964286Y-85395295D02*
X228011905Y-85300057D01*
X228011905Y-85300057D02*
X228059524Y-85252438D01*
X228059524Y-85252438D02*
X228154762Y-85204819D01*
X228154762Y-85204819D02*
X228345238Y-85204819D01*
X228345238Y-85204819D02*
X228440476Y-85252438D01*
X228440476Y-85252438D02*
X228488095Y-85300057D01*
X228488095Y-85300057D02*
X228535714Y-85395295D01*
X228535714Y-85395295D02*
X228535714Y-85442914D01*
X228535714Y-85442914D02*
X228488095Y-85538152D01*
X228488095Y-85538152D02*
X228440476Y-85585771D01*
X228440476Y-85585771D02*
X228345238Y-85633390D01*
X228345238Y-85633390D02*
X228154762Y-85633390D01*
X228154762Y-85633390D02*
X228059524Y-85681009D01*
X228059524Y-85681009D02*
X228011905Y-85728628D01*
X228011905Y-85728628D02*
X227964286Y-85823866D01*
X227964286Y-85823866D02*
X227964286Y-86014342D01*
X227964286Y-86014342D02*
X228011905Y-86109580D01*
X228011905Y-86109580D02*
X228059524Y-86157200D01*
X228059524Y-86157200D02*
X228154762Y-86204819D01*
X228154762Y-86204819D02*
X228345238Y-86204819D01*
X228345238Y-86204819D02*
X228440476Y-86157200D01*
X228440476Y-86157200D02*
X228488095Y-86109580D01*
X228488095Y-86109580D02*
X228535714Y-86014342D01*
X228535714Y-86014342D02*
X228535714Y-85823866D01*
X228535714Y-85823866D02*
X228488095Y-85728628D01*
X228488095Y-85728628D02*
X228440476Y-85681009D01*
X228440476Y-85681009D02*
X228345238Y-85633390D01*
X234343333Y-127204819D02*
X234010000Y-126728628D01*
X233771905Y-127204819D02*
X233771905Y-126204819D01*
X233771905Y-126204819D02*
X234152857Y-126204819D01*
X234152857Y-126204819D02*
X234248095Y-126252438D01*
X234248095Y-126252438D02*
X234295714Y-126300057D01*
X234295714Y-126300057D02*
X234343333Y-126395295D01*
X234343333Y-126395295D02*
X234343333Y-126538152D01*
X234343333Y-126538152D02*
X234295714Y-126633390D01*
X234295714Y-126633390D02*
X234248095Y-126681009D01*
X234248095Y-126681009D02*
X234152857Y-126728628D01*
X234152857Y-126728628D02*
X233771905Y-126728628D01*
X235295714Y-127204819D02*
X234724286Y-127204819D01*
X235010000Y-127204819D02*
X235010000Y-126204819D01*
X235010000Y-126204819D02*
X234914762Y-126347676D01*
X234914762Y-126347676D02*
X234819524Y-126442914D01*
X234819524Y-126442914D02*
X234724286Y-126490533D01*
X238583333Y-86204819D02*
X238250000Y-85728628D01*
X238011905Y-86204819D02*
X238011905Y-85204819D01*
X238011905Y-85204819D02*
X238392857Y-85204819D01*
X238392857Y-85204819D02*
X238488095Y-85252438D01*
X238488095Y-85252438D02*
X238535714Y-85300057D01*
X238535714Y-85300057D02*
X238583333Y-85395295D01*
X238583333Y-85395295D02*
X238583333Y-85538152D01*
X238583333Y-85538152D02*
X238535714Y-85633390D01*
X238535714Y-85633390D02*
X238488095Y-85681009D01*
X238488095Y-85681009D02*
X238392857Y-85728628D01*
X238392857Y-85728628D02*
X238011905Y-85728628D01*
X238916667Y-85204819D02*
X239583333Y-85204819D01*
X239583333Y-85204819D02*
X239154762Y-86204819D01*
X84843866Y-63474404D02*
X84843866Y-62712500D01*
X85224819Y-63093452D02*
X84462914Y-63093452D01*
X85224819Y-61712500D02*
X85224819Y-62283928D01*
X85224819Y-61998214D02*
X84224819Y-61998214D01*
X84224819Y-61998214D02*
X84367676Y-62093452D01*
X84367676Y-62093452D02*
X84462914Y-62188690D01*
X84462914Y-62188690D02*
X84510533Y-62283928D01*
X84320057Y-61331547D02*
X84272438Y-61283928D01*
X84272438Y-61283928D02*
X84224819Y-61188690D01*
X84224819Y-61188690D02*
X84224819Y-60950595D01*
X84224819Y-60950595D02*
X84272438Y-60855357D01*
X84272438Y-60855357D02*
X84320057Y-60807738D01*
X84320057Y-60807738D02*
X84415295Y-60760119D01*
X84415295Y-60760119D02*
X84510533Y-60760119D01*
X84510533Y-60760119D02*
X84653390Y-60807738D01*
X84653390Y-60807738D02*
X85224819Y-61379166D01*
X85224819Y-61379166D02*
X85224819Y-60760119D01*
X84224819Y-60474404D02*
X85224819Y-60141071D01*
X85224819Y-60141071D02*
X84224819Y-59807738D01*
X189333333Y-76650441D02*
X189285714Y-76698061D01*
X189285714Y-76698061D02*
X189142857Y-76745680D01*
X189142857Y-76745680D02*
X189047619Y-76745680D01*
X189047619Y-76745680D02*
X188904762Y-76698061D01*
X188904762Y-76698061D02*
X188809524Y-76602822D01*
X188809524Y-76602822D02*
X188761905Y-76507584D01*
X188761905Y-76507584D02*
X188714286Y-76317108D01*
X188714286Y-76317108D02*
X188714286Y-76174251D01*
X188714286Y-76174251D02*
X188761905Y-75983775D01*
X188761905Y-75983775D02*
X188809524Y-75888537D01*
X188809524Y-75888537D02*
X188904762Y-75793299D01*
X188904762Y-75793299D02*
X189047619Y-75745680D01*
X189047619Y-75745680D02*
X189142857Y-75745680D01*
X189142857Y-75745680D02*
X189285714Y-75793299D01*
X189285714Y-75793299D02*
X189333333Y-75840918D01*
X189666667Y-75745680D02*
X190285714Y-75745680D01*
X190285714Y-75745680D02*
X189952381Y-76126632D01*
X189952381Y-76126632D02*
X190095238Y-76126632D01*
X190095238Y-76126632D02*
X190190476Y-76174251D01*
X190190476Y-76174251D02*
X190238095Y-76221870D01*
X190238095Y-76221870D02*
X190285714Y-76317108D01*
X190285714Y-76317108D02*
X190285714Y-76555203D01*
X190285714Y-76555203D02*
X190238095Y-76650441D01*
X190238095Y-76650441D02*
X190190476Y-76698061D01*
X190190476Y-76698061D02*
X190095238Y-76745680D01*
X190095238Y-76745680D02*
X189809524Y-76745680D01*
X189809524Y-76745680D02*
X189714286Y-76698061D01*
X189714286Y-76698061D02*
X189666667Y-76650441D01*
X226607142Y-88704819D02*
X226273809Y-88228628D01*
X226035714Y-88704819D02*
X226035714Y-87704819D01*
X226035714Y-87704819D02*
X226416666Y-87704819D01*
X226416666Y-87704819D02*
X226511904Y-87752438D01*
X226511904Y-87752438D02*
X226559523Y-87800057D01*
X226559523Y-87800057D02*
X226607142Y-87895295D01*
X226607142Y-87895295D02*
X226607142Y-88038152D01*
X226607142Y-88038152D02*
X226559523Y-88133390D01*
X226559523Y-88133390D02*
X226511904Y-88181009D01*
X226511904Y-88181009D02*
X226416666Y-88228628D01*
X226416666Y-88228628D02*
X226035714Y-88228628D01*
X227559523Y-88704819D02*
X226988095Y-88704819D01*
X227273809Y-88704819D02*
X227273809Y-87704819D01*
X227273809Y-87704819D02*
X227178571Y-87847676D01*
X227178571Y-87847676D02*
X227083333Y-87942914D01*
X227083333Y-87942914D02*
X226988095Y-87990533D01*
X227892857Y-87704819D02*
X228511904Y-87704819D01*
X228511904Y-87704819D02*
X228178571Y-88085771D01*
X228178571Y-88085771D02*
X228321428Y-88085771D01*
X228321428Y-88085771D02*
X228416666Y-88133390D01*
X228416666Y-88133390D02*
X228464285Y-88181009D01*
X228464285Y-88181009D02*
X228511904Y-88276247D01*
X228511904Y-88276247D02*
X228511904Y-88514342D01*
X228511904Y-88514342D02*
X228464285Y-88609580D01*
X228464285Y-88609580D02*
X228416666Y-88657200D01*
X228416666Y-88657200D02*
X228321428Y-88704819D01*
X228321428Y-88704819D02*
X228035714Y-88704819D01*
X228035714Y-88704819D02*
X227940476Y-88657200D01*
X227940476Y-88657200D02*
X227892857Y-88609580D01*
D11*
X140476190Y-93159638D02*
X140476190Y-91159638D01*
X140476190Y-91159638D02*
X141238095Y-91159638D01*
X141238095Y-91159638D02*
X141428571Y-91254876D01*
X141428571Y-91254876D02*
X141523809Y-91350114D01*
X141523809Y-91350114D02*
X141619047Y-91540590D01*
X141619047Y-91540590D02*
X141619047Y-91826304D01*
X141619047Y-91826304D02*
X141523809Y-92016780D01*
X141523809Y-92016780D02*
X141428571Y-92112019D01*
X141428571Y-92112019D02*
X141238095Y-92207257D01*
X141238095Y-92207257D02*
X140476190Y-92207257D01*
X142476190Y-93159638D02*
X142476190Y-91159638D01*
X142476190Y-91159638D02*
X143619047Y-93159638D01*
X143619047Y-93159638D02*
X143619047Y-91159638D01*
X144476190Y-93064400D02*
X144761904Y-93159638D01*
X144761904Y-93159638D02*
X145238095Y-93159638D01*
X145238095Y-93159638D02*
X145428571Y-93064400D01*
X145428571Y-93064400D02*
X145523809Y-92969161D01*
X145523809Y-92969161D02*
X145619047Y-92778685D01*
X145619047Y-92778685D02*
X145619047Y-92588209D01*
X145619047Y-92588209D02*
X145523809Y-92397733D01*
X145523809Y-92397733D02*
X145428571Y-92302495D01*
X145428571Y-92302495D02*
X145238095Y-92207257D01*
X145238095Y-92207257D02*
X144857142Y-92112019D01*
X144857142Y-92112019D02*
X144666666Y-92016780D01*
X144666666Y-92016780D02*
X144571428Y-91921542D01*
X144571428Y-91921542D02*
X144476190Y-91731066D01*
X144476190Y-91731066D02*
X144476190Y-91540590D01*
X144476190Y-91540590D02*
X144571428Y-91350114D01*
X144571428Y-91350114D02*
X144666666Y-91254876D01*
X144666666Y-91254876D02*
X144857142Y-91159638D01*
X144857142Y-91159638D02*
X145333333Y-91159638D01*
X145333333Y-91159638D02*
X145619047Y-91254876D01*
D12*
X120504819Y-97509048D02*
X120028628Y-97842381D01*
X120504819Y-98080476D02*
X119504819Y-98080476D01*
X119504819Y-98080476D02*
X119504819Y-97699524D01*
X119504819Y-97699524D02*
X119552438Y-97604286D01*
X119552438Y-97604286D02*
X119600057Y-97556667D01*
X119600057Y-97556667D02*
X119695295Y-97509048D01*
X119695295Y-97509048D02*
X119838152Y-97509048D01*
X119838152Y-97509048D02*
X119933390Y-97556667D01*
X119933390Y-97556667D02*
X119981009Y-97604286D01*
X119981009Y-97604286D02*
X120028628Y-97699524D01*
X120028628Y-97699524D02*
X120028628Y-98080476D01*
X120504819Y-96651905D02*
X119981009Y-96651905D01*
X119981009Y-96651905D02*
X119885771Y-96699524D01*
X119885771Y-96699524D02*
X119838152Y-96794762D01*
X119838152Y-96794762D02*
X119838152Y-96985238D01*
X119838152Y-96985238D02*
X119885771Y-97080476D01*
X120457200Y-96651905D02*
X120504819Y-96747143D01*
X120504819Y-96747143D02*
X120504819Y-96985238D01*
X120504819Y-96985238D02*
X120457200Y-97080476D01*
X120457200Y-97080476D02*
X120361961Y-97128095D01*
X120361961Y-97128095D02*
X120266723Y-97128095D01*
X120266723Y-97128095D02*
X120171485Y-97080476D01*
X120171485Y-97080476D02*
X120123866Y-96985238D01*
X120123866Y-96985238D02*
X120123866Y-96747143D01*
X120123866Y-96747143D02*
X120076247Y-96651905D01*
X120457200Y-96223333D02*
X120504819Y-96128095D01*
X120504819Y-96128095D02*
X120504819Y-95937619D01*
X120504819Y-95937619D02*
X120457200Y-95842381D01*
X120457200Y-95842381D02*
X120361961Y-95794762D01*
X120361961Y-95794762D02*
X120314342Y-95794762D01*
X120314342Y-95794762D02*
X120219104Y-95842381D01*
X120219104Y-95842381D02*
X120171485Y-95937619D01*
X120171485Y-95937619D02*
X120171485Y-96080476D01*
X120171485Y-96080476D02*
X120123866Y-96175714D01*
X120123866Y-96175714D02*
X120028628Y-96223333D01*
X120028628Y-96223333D02*
X119981009Y-96223333D01*
X119981009Y-96223333D02*
X119885771Y-96175714D01*
X119885771Y-96175714D02*
X119838152Y-96080476D01*
X119838152Y-96080476D02*
X119838152Y-95937619D01*
X119838152Y-95937619D02*
X119885771Y-95842381D01*
X119838152Y-95366190D02*
X120838152Y-95366190D01*
X119885771Y-95366190D02*
X119838152Y-95270952D01*
X119838152Y-95270952D02*
X119838152Y-95080476D01*
X119838152Y-95080476D02*
X119885771Y-94985238D01*
X119885771Y-94985238D02*
X119933390Y-94937619D01*
X119933390Y-94937619D02*
X120028628Y-94890000D01*
X120028628Y-94890000D02*
X120314342Y-94890000D01*
X120314342Y-94890000D02*
X120409580Y-94937619D01*
X120409580Y-94937619D02*
X120457200Y-94985238D01*
X120457200Y-94985238D02*
X120504819Y-95080476D01*
X120504819Y-95080476D02*
X120504819Y-95270952D01*
X120504819Y-95270952D02*
X120457200Y-95366190D01*
X120504819Y-94461428D02*
X119504819Y-94461428D01*
X119885771Y-94461428D02*
X119838152Y-94366190D01*
X119838152Y-94366190D02*
X119838152Y-94175714D01*
X119838152Y-94175714D02*
X119885771Y-94080476D01*
X119885771Y-94080476D02*
X119933390Y-94032857D01*
X119933390Y-94032857D02*
X120028628Y-93985238D01*
X120028628Y-93985238D02*
X120314342Y-93985238D01*
X120314342Y-93985238D02*
X120409580Y-94032857D01*
X120409580Y-94032857D02*
X120457200Y-94080476D01*
X120457200Y-94080476D02*
X120504819Y-94175714D01*
X120504819Y-94175714D02*
X120504819Y-94366190D01*
X120504819Y-94366190D02*
X120457200Y-94461428D01*
X120457200Y-93175714D02*
X120504819Y-93270952D01*
X120504819Y-93270952D02*
X120504819Y-93461428D01*
X120504819Y-93461428D02*
X120457200Y-93556666D01*
X120457200Y-93556666D02*
X120361961Y-93604285D01*
X120361961Y-93604285D02*
X119981009Y-93604285D01*
X119981009Y-93604285D02*
X119885771Y-93556666D01*
X119885771Y-93556666D02*
X119838152Y-93461428D01*
X119838152Y-93461428D02*
X119838152Y-93270952D01*
X119838152Y-93270952D02*
X119885771Y-93175714D01*
X119885771Y-93175714D02*
X119981009Y-93128095D01*
X119981009Y-93128095D02*
X120076247Y-93128095D01*
X120076247Y-93128095D02*
X120171485Y-93604285D01*
X120504819Y-92699523D02*
X119838152Y-92699523D01*
X120028628Y-92699523D02*
X119933390Y-92651904D01*
X119933390Y-92651904D02*
X119885771Y-92604285D01*
X119885771Y-92604285D02*
X119838152Y-92509047D01*
X119838152Y-92509047D02*
X119838152Y-92413809D01*
X120504819Y-92080475D02*
X119838152Y-92080475D01*
X120028628Y-92080475D02*
X119933390Y-92032856D01*
X119933390Y-92032856D02*
X119885771Y-91985237D01*
X119885771Y-91985237D02*
X119838152Y-91889999D01*
X119838152Y-91889999D02*
X119838152Y-91794761D01*
X119838152Y-91556665D02*
X120504819Y-91318570D01*
X119838152Y-91080475D02*
X120504819Y-91318570D01*
X120504819Y-91318570D02*
X120742914Y-91413808D01*
X120742914Y-91413808D02*
X120790533Y-91461427D01*
X120790533Y-91461427D02*
X120838152Y-91556665D01*
X120504819Y-90699522D02*
X119504819Y-90699522D01*
X119504819Y-90699522D02*
X119504819Y-90318570D01*
X119504819Y-90318570D02*
X119552438Y-90223332D01*
X119552438Y-90223332D02*
X119600057Y-90175713D01*
X119600057Y-90175713D02*
X119695295Y-90128094D01*
X119695295Y-90128094D02*
X119838152Y-90128094D01*
X119838152Y-90128094D02*
X119933390Y-90175713D01*
X119933390Y-90175713D02*
X119981009Y-90223332D01*
X119981009Y-90223332D02*
X120028628Y-90318570D01*
X120028628Y-90318570D02*
X120028628Y-90699522D01*
X120504819Y-89699522D02*
X119838152Y-89699522D01*
X119504819Y-89699522D02*
X119552438Y-89747141D01*
X119552438Y-89747141D02*
X119600057Y-89699522D01*
X119600057Y-89699522D02*
X119552438Y-89651903D01*
X119552438Y-89651903D02*
X119504819Y-89699522D01*
X119504819Y-89699522D02*
X119600057Y-89699522D01*
X120600057Y-89461428D02*
X120600057Y-88699523D01*
X120504819Y-88461427D02*
X119504819Y-88461427D01*
X119504819Y-88461427D02*
X119504819Y-88080475D01*
X119504819Y-88080475D02*
X119552438Y-87985237D01*
X119552438Y-87985237D02*
X119600057Y-87937618D01*
X119600057Y-87937618D02*
X119695295Y-87889999D01*
X119695295Y-87889999D02*
X119838152Y-87889999D01*
X119838152Y-87889999D02*
X119933390Y-87937618D01*
X119933390Y-87937618D02*
X119981009Y-87985237D01*
X119981009Y-87985237D02*
X120028628Y-88080475D01*
X120028628Y-88080475D02*
X120028628Y-88461427D01*
X120504819Y-87461427D02*
X119838152Y-87461427D01*
X119504819Y-87461427D02*
X119552438Y-87509046D01*
X119552438Y-87509046D02*
X119600057Y-87461427D01*
X119600057Y-87461427D02*
X119552438Y-87413808D01*
X119552438Y-87413808D02*
X119504819Y-87461427D01*
X119504819Y-87461427D02*
X119600057Y-87461427D01*
X120457200Y-86556666D02*
X120504819Y-86651904D01*
X120504819Y-86651904D02*
X120504819Y-86842380D01*
X120504819Y-86842380D02*
X120457200Y-86937618D01*
X120457200Y-86937618D02*
X120409580Y-86985237D01*
X120409580Y-86985237D02*
X120314342Y-87032856D01*
X120314342Y-87032856D02*
X120028628Y-87032856D01*
X120028628Y-87032856D02*
X119933390Y-86985237D01*
X119933390Y-86985237D02*
X119885771Y-86937618D01*
X119885771Y-86937618D02*
X119838152Y-86842380D01*
X119838152Y-86842380D02*
X119838152Y-86651904D01*
X119838152Y-86651904D02*
X119885771Y-86556666D01*
X120504819Y-85985237D02*
X120457200Y-86080475D01*
X120457200Y-86080475D02*
X120409580Y-86128094D01*
X120409580Y-86128094D02*
X120314342Y-86175713D01*
X120314342Y-86175713D02*
X120028628Y-86175713D01*
X120028628Y-86175713D02*
X119933390Y-86128094D01*
X119933390Y-86128094D02*
X119885771Y-86080475D01*
X119885771Y-86080475D02*
X119838152Y-85985237D01*
X119838152Y-85985237D02*
X119838152Y-85842380D01*
X119838152Y-85842380D02*
X119885771Y-85747142D01*
X119885771Y-85747142D02*
X119933390Y-85699523D01*
X119933390Y-85699523D02*
X120028628Y-85651904D01*
X120028628Y-85651904D02*
X120314342Y-85651904D01*
X120314342Y-85651904D02*
X120409580Y-85699523D01*
X120409580Y-85699523D02*
X120457200Y-85747142D01*
X120457200Y-85747142D02*
X120504819Y-85842380D01*
X120504819Y-85842380D02*
X120504819Y-85985237D01*
X98303866Y-63514404D02*
X98303866Y-62752500D01*
X98684819Y-61752500D02*
X98684819Y-62323928D01*
X98684819Y-62038214D02*
X97684819Y-62038214D01*
X97684819Y-62038214D02*
X97827676Y-62133452D01*
X97827676Y-62133452D02*
X97922914Y-62228690D01*
X97922914Y-62228690D02*
X97970533Y-62323928D01*
X97780057Y-61371547D02*
X97732438Y-61323928D01*
X97732438Y-61323928D02*
X97684819Y-61228690D01*
X97684819Y-61228690D02*
X97684819Y-60990595D01*
X97684819Y-60990595D02*
X97732438Y-60895357D01*
X97732438Y-60895357D02*
X97780057Y-60847738D01*
X97780057Y-60847738D02*
X97875295Y-60800119D01*
X97875295Y-60800119D02*
X97970533Y-60800119D01*
X97970533Y-60800119D02*
X98113390Y-60847738D01*
X98113390Y-60847738D02*
X98684819Y-61419166D01*
X98684819Y-61419166D02*
X98684819Y-60800119D01*
X97684819Y-60514404D02*
X98684819Y-60181071D01*
X98684819Y-60181071D02*
X97684819Y-59847738D01*
X228843333Y-127204819D02*
X228510000Y-126728628D01*
X228271905Y-127204819D02*
X228271905Y-126204819D01*
X228271905Y-126204819D02*
X228652857Y-126204819D01*
X228652857Y-126204819D02*
X228748095Y-126252438D01*
X228748095Y-126252438D02*
X228795714Y-126300057D01*
X228795714Y-126300057D02*
X228843333Y-126395295D01*
X228843333Y-126395295D02*
X228843333Y-126538152D01*
X228843333Y-126538152D02*
X228795714Y-126633390D01*
X228795714Y-126633390D02*
X228748095Y-126681009D01*
X228748095Y-126681009D02*
X228652857Y-126728628D01*
X228652857Y-126728628D02*
X228271905Y-126728628D01*
X229176667Y-126204819D02*
X229795714Y-126204819D01*
X229795714Y-126204819D02*
X229462381Y-126585771D01*
X229462381Y-126585771D02*
X229605238Y-126585771D01*
X229605238Y-126585771D02*
X229700476Y-126633390D01*
X229700476Y-126633390D02*
X229748095Y-126681009D01*
X229748095Y-126681009D02*
X229795714Y-126776247D01*
X229795714Y-126776247D02*
X229795714Y-127014342D01*
X229795714Y-127014342D02*
X229748095Y-127109580D01*
X229748095Y-127109580D02*
X229700476Y-127157200D01*
X229700476Y-127157200D02*
X229605238Y-127204819D01*
X229605238Y-127204819D02*
X229319524Y-127204819D01*
X229319524Y-127204819D02*
X229224286Y-127157200D01*
X229224286Y-127157200D02*
X229176667Y-127109580D01*
X150394642Y-74304819D02*
X150061309Y-73828628D01*
X149823214Y-74304819D02*
X149823214Y-73304819D01*
X149823214Y-73304819D02*
X150204166Y-73304819D01*
X150204166Y-73304819D02*
X150299404Y-73352438D01*
X150299404Y-73352438D02*
X150347023Y-73400057D01*
X150347023Y-73400057D02*
X150394642Y-73495295D01*
X150394642Y-73495295D02*
X150394642Y-73638152D01*
X150394642Y-73638152D02*
X150347023Y-73733390D01*
X150347023Y-73733390D02*
X150299404Y-73781009D01*
X150299404Y-73781009D02*
X150204166Y-73828628D01*
X150204166Y-73828628D02*
X149823214Y-73828628D01*
X150775595Y-73400057D02*
X150823214Y-73352438D01*
X150823214Y-73352438D02*
X150918452Y-73304819D01*
X150918452Y-73304819D02*
X151156547Y-73304819D01*
X151156547Y-73304819D02*
X151251785Y-73352438D01*
X151251785Y-73352438D02*
X151299404Y-73400057D01*
X151299404Y-73400057D02*
X151347023Y-73495295D01*
X151347023Y-73495295D02*
X151347023Y-73590533D01*
X151347023Y-73590533D02*
X151299404Y-73733390D01*
X151299404Y-73733390D02*
X150727976Y-74304819D01*
X150727976Y-74304819D02*
X151347023Y-74304819D01*
X151966071Y-73304819D02*
X152061309Y-73304819D01*
X152061309Y-73304819D02*
X152156547Y-73352438D01*
X152156547Y-73352438D02*
X152204166Y-73400057D01*
X152204166Y-73400057D02*
X152251785Y-73495295D01*
X152251785Y-73495295D02*
X152299404Y-73685771D01*
X152299404Y-73685771D02*
X152299404Y-73923866D01*
X152299404Y-73923866D02*
X152251785Y-74114342D01*
X152251785Y-74114342D02*
X152204166Y-74209580D01*
X152204166Y-74209580D02*
X152156547Y-74257200D01*
X152156547Y-74257200D02*
X152061309Y-74304819D01*
X152061309Y-74304819D02*
X151966071Y-74304819D01*
X151966071Y-74304819D02*
X151870833Y-74257200D01*
X151870833Y-74257200D02*
X151823214Y-74209580D01*
X151823214Y-74209580D02*
X151775595Y-74114342D01*
X151775595Y-74114342D02*
X151727976Y-73923866D01*
X151727976Y-73923866D02*
X151727976Y-73685771D01*
X151727976Y-73685771D02*
X151775595Y-73495295D01*
X151775595Y-73495295D02*
X151823214Y-73400057D01*
X151823214Y-73400057D02*
X151870833Y-73352438D01*
X151870833Y-73352438D02*
X151966071Y-73304819D01*
X150319642Y-67204819D02*
X149986309Y-66728628D01*
X149748214Y-67204819D02*
X149748214Y-66204819D01*
X149748214Y-66204819D02*
X150129166Y-66204819D01*
X150129166Y-66204819D02*
X150224404Y-66252438D01*
X150224404Y-66252438D02*
X150272023Y-66300057D01*
X150272023Y-66300057D02*
X150319642Y-66395295D01*
X150319642Y-66395295D02*
X150319642Y-66538152D01*
X150319642Y-66538152D02*
X150272023Y-66633390D01*
X150272023Y-66633390D02*
X150224404Y-66681009D01*
X150224404Y-66681009D02*
X150129166Y-66728628D01*
X150129166Y-66728628D02*
X149748214Y-66728628D01*
X151272023Y-67204819D02*
X150700595Y-67204819D01*
X150986309Y-67204819D02*
X150986309Y-66204819D01*
X150986309Y-66204819D02*
X150891071Y-66347676D01*
X150891071Y-66347676D02*
X150795833Y-66442914D01*
X150795833Y-66442914D02*
X150700595Y-66490533D01*
X151748214Y-67204819D02*
X151938690Y-67204819D01*
X151938690Y-67204819D02*
X152033928Y-67157200D01*
X152033928Y-67157200D02*
X152081547Y-67109580D01*
X152081547Y-67109580D02*
X152176785Y-66966723D01*
X152176785Y-66966723D02*
X152224404Y-66776247D01*
X152224404Y-66776247D02*
X152224404Y-66395295D01*
X152224404Y-66395295D02*
X152176785Y-66300057D01*
X152176785Y-66300057D02*
X152129166Y-66252438D01*
X152129166Y-66252438D02*
X152033928Y-66204819D01*
X152033928Y-66204819D02*
X151843452Y-66204819D01*
X151843452Y-66204819D02*
X151748214Y-66252438D01*
X151748214Y-66252438D02*
X151700595Y-66300057D01*
X151700595Y-66300057D02*
X151652976Y-66395295D01*
X151652976Y-66395295D02*
X151652976Y-66633390D01*
X151652976Y-66633390D02*
X151700595Y-66728628D01*
X151700595Y-66728628D02*
X151748214Y-66776247D01*
X151748214Y-66776247D02*
X151843452Y-66823866D01*
X151843452Y-66823866D02*
X152033928Y-66823866D01*
X152033928Y-66823866D02*
X152129166Y-66776247D01*
X152129166Y-66776247D02*
X152176785Y-66728628D01*
X152176785Y-66728628D02*
X152224404Y-66633390D01*
X188894642Y-84304819D02*
X188561309Y-83828628D01*
X188323214Y-84304819D02*
X188323214Y-83304819D01*
X188323214Y-83304819D02*
X188704166Y-83304819D01*
X188704166Y-83304819D02*
X188799404Y-83352438D01*
X188799404Y-83352438D02*
X188847023Y-83400057D01*
X188847023Y-83400057D02*
X188894642Y-83495295D01*
X188894642Y-83495295D02*
X188894642Y-83638152D01*
X188894642Y-83638152D02*
X188847023Y-83733390D01*
X188847023Y-83733390D02*
X188799404Y-83781009D01*
X188799404Y-83781009D02*
X188704166Y-83828628D01*
X188704166Y-83828628D02*
X188323214Y-83828628D01*
X189847023Y-84304819D02*
X189275595Y-84304819D01*
X189561309Y-84304819D02*
X189561309Y-83304819D01*
X189561309Y-83304819D02*
X189466071Y-83447676D01*
X189466071Y-83447676D02*
X189370833Y-83542914D01*
X189370833Y-83542914D02*
X189275595Y-83590533D01*
X190180357Y-83304819D02*
X190847023Y-83304819D01*
X190847023Y-83304819D02*
X190418452Y-84304819D01*
X171454819Y-54642857D02*
X170978628Y-54976190D01*
X171454819Y-55214285D02*
X170454819Y-55214285D01*
X170454819Y-55214285D02*
X170454819Y-54833333D01*
X170454819Y-54833333D02*
X170502438Y-54738095D01*
X170502438Y-54738095D02*
X170550057Y-54690476D01*
X170550057Y-54690476D02*
X170645295Y-54642857D01*
X170645295Y-54642857D02*
X170788152Y-54642857D01*
X170788152Y-54642857D02*
X170883390Y-54690476D01*
X170883390Y-54690476D02*
X170931009Y-54738095D01*
X170931009Y-54738095D02*
X170978628Y-54833333D01*
X170978628Y-54833333D02*
X170978628Y-55214285D01*
X170550057Y-54261904D02*
X170502438Y-54214285D01*
X170502438Y-54214285D02*
X170454819Y-54119047D01*
X170454819Y-54119047D02*
X170454819Y-53880952D01*
X170454819Y-53880952D02*
X170502438Y-53785714D01*
X170502438Y-53785714D02*
X170550057Y-53738095D01*
X170550057Y-53738095D02*
X170645295Y-53690476D01*
X170645295Y-53690476D02*
X170740533Y-53690476D01*
X170740533Y-53690476D02*
X170883390Y-53738095D01*
X170883390Y-53738095D02*
X171454819Y-54309523D01*
X171454819Y-54309523D02*
X171454819Y-53690476D01*
X170454819Y-52833333D02*
X170454819Y-53023809D01*
X170454819Y-53023809D02*
X170502438Y-53119047D01*
X170502438Y-53119047D02*
X170550057Y-53166666D01*
X170550057Y-53166666D02*
X170692914Y-53261904D01*
X170692914Y-53261904D02*
X170883390Y-53309523D01*
X170883390Y-53309523D02*
X171264342Y-53309523D01*
X171264342Y-53309523D02*
X171359580Y-53261904D01*
X171359580Y-53261904D02*
X171407200Y-53214285D01*
X171407200Y-53214285D02*
X171454819Y-53119047D01*
X171454819Y-53119047D02*
X171454819Y-52928571D01*
X171454819Y-52928571D02*
X171407200Y-52833333D01*
X171407200Y-52833333D02*
X171359580Y-52785714D01*
X171359580Y-52785714D02*
X171264342Y-52738095D01*
X171264342Y-52738095D02*
X171026247Y-52738095D01*
X171026247Y-52738095D02*
X170931009Y-52785714D01*
X170931009Y-52785714D02*
X170883390Y-52833333D01*
X170883390Y-52833333D02*
X170835771Y-52928571D01*
X170835771Y-52928571D02*
X170835771Y-53119047D01*
X170835771Y-53119047D02*
X170883390Y-53214285D01*
X170883390Y-53214285D02*
X170931009Y-53261904D01*
X170931009Y-53261904D02*
X171026247Y-53309523D01*
X189267427Y-80146340D02*
X189219808Y-80193960D01*
X189219808Y-80193960D02*
X189076951Y-80241579D01*
X189076951Y-80241579D02*
X188981713Y-80241579D01*
X188981713Y-80241579D02*
X188838856Y-80193960D01*
X188838856Y-80193960D02*
X188743618Y-80098721D01*
X188743618Y-80098721D02*
X188695999Y-80003483D01*
X188695999Y-80003483D02*
X188648380Y-79813007D01*
X188648380Y-79813007D02*
X188648380Y-79670150D01*
X188648380Y-79670150D02*
X188695999Y-79479674D01*
X188695999Y-79479674D02*
X188743618Y-79384436D01*
X188743618Y-79384436D02*
X188838856Y-79289198D01*
X188838856Y-79289198D02*
X188981713Y-79241579D01*
X188981713Y-79241579D02*
X189076951Y-79241579D01*
X189076951Y-79241579D02*
X189219808Y-79289198D01*
X189219808Y-79289198D02*
X189267427Y-79336817D01*
X190172189Y-79241579D02*
X189695999Y-79241579D01*
X189695999Y-79241579D02*
X189648380Y-79717769D01*
X189648380Y-79717769D02*
X189695999Y-79670150D01*
X189695999Y-79670150D02*
X189791237Y-79622531D01*
X189791237Y-79622531D02*
X190029332Y-79622531D01*
X190029332Y-79622531D02*
X190124570Y-79670150D01*
X190124570Y-79670150D02*
X190172189Y-79717769D01*
X190172189Y-79717769D02*
X190219808Y-79813007D01*
X190219808Y-79813007D02*
X190219808Y-80051102D01*
X190219808Y-80051102D02*
X190172189Y-80146340D01*
X190172189Y-80146340D02*
X190124570Y-80193960D01*
X190124570Y-80193960D02*
X190029332Y-80241579D01*
X190029332Y-80241579D02*
X189791237Y-80241579D01*
X189791237Y-80241579D02*
X189695999Y-80193960D01*
X189695999Y-80193960D02*
X189648380Y-80146340D01*
X205920833Y-127174819D02*
X205587500Y-126698628D01*
X205349405Y-127174819D02*
X205349405Y-126174819D01*
X205349405Y-126174819D02*
X205730357Y-126174819D01*
X205730357Y-126174819D02*
X205825595Y-126222438D01*
X205825595Y-126222438D02*
X205873214Y-126270057D01*
X205873214Y-126270057D02*
X205920833Y-126365295D01*
X205920833Y-126365295D02*
X205920833Y-126508152D01*
X205920833Y-126508152D02*
X205873214Y-126603390D01*
X205873214Y-126603390D02*
X205825595Y-126651009D01*
X205825595Y-126651009D02*
X205730357Y-126698628D01*
X205730357Y-126698628D02*
X205349405Y-126698628D01*
X206301786Y-126270057D02*
X206349405Y-126222438D01*
X206349405Y-126222438D02*
X206444643Y-126174819D01*
X206444643Y-126174819D02*
X206682738Y-126174819D01*
X206682738Y-126174819D02*
X206777976Y-126222438D01*
X206777976Y-126222438D02*
X206825595Y-126270057D01*
X206825595Y-126270057D02*
X206873214Y-126365295D01*
X206873214Y-126365295D02*
X206873214Y-126460533D01*
X206873214Y-126460533D02*
X206825595Y-126603390D01*
X206825595Y-126603390D02*
X206254167Y-127174819D01*
X206254167Y-127174819D02*
X206873214Y-127174819D01*
X98684819Y-66570357D02*
X98208628Y-66903690D01*
X98684819Y-67141785D02*
X97684819Y-67141785D01*
X97684819Y-67141785D02*
X97684819Y-66760833D01*
X97684819Y-66760833D02*
X97732438Y-66665595D01*
X97732438Y-66665595D02*
X97780057Y-66617976D01*
X97780057Y-66617976D02*
X97875295Y-66570357D01*
X97875295Y-66570357D02*
X98018152Y-66570357D01*
X98018152Y-66570357D02*
X98113390Y-66617976D01*
X98113390Y-66617976D02*
X98161009Y-66665595D01*
X98161009Y-66665595D02*
X98208628Y-66760833D01*
X98208628Y-66760833D02*
X98208628Y-67141785D01*
X97780057Y-66189404D02*
X97732438Y-66141785D01*
X97732438Y-66141785D02*
X97684819Y-66046547D01*
X97684819Y-66046547D02*
X97684819Y-65808452D01*
X97684819Y-65808452D02*
X97732438Y-65713214D01*
X97732438Y-65713214D02*
X97780057Y-65665595D01*
X97780057Y-65665595D02*
X97875295Y-65617976D01*
X97875295Y-65617976D02*
X97970533Y-65617976D01*
X97970533Y-65617976D02*
X98113390Y-65665595D01*
X98113390Y-65665595D02*
X98684819Y-66237023D01*
X98684819Y-66237023D02*
X98684819Y-65617976D01*
X98684819Y-65141785D02*
X98684819Y-64951309D01*
X98684819Y-64951309D02*
X98637200Y-64856071D01*
X98637200Y-64856071D02*
X98589580Y-64808452D01*
X98589580Y-64808452D02*
X98446723Y-64713214D01*
X98446723Y-64713214D02*
X98256247Y-64665595D01*
X98256247Y-64665595D02*
X97875295Y-64665595D01*
X97875295Y-64665595D02*
X97780057Y-64713214D01*
X97780057Y-64713214D02*
X97732438Y-64760833D01*
X97732438Y-64760833D02*
X97684819Y-64856071D01*
X97684819Y-64856071D02*
X97684819Y-65046547D01*
X97684819Y-65046547D02*
X97732438Y-65141785D01*
X97732438Y-65141785D02*
X97780057Y-65189404D01*
X97780057Y-65189404D02*
X97875295Y-65237023D01*
X97875295Y-65237023D02*
X98113390Y-65237023D01*
X98113390Y-65237023D02*
X98208628Y-65189404D01*
X98208628Y-65189404D02*
X98256247Y-65141785D01*
X98256247Y-65141785D02*
X98303866Y-65046547D01*
X98303866Y-65046547D02*
X98303866Y-64856071D01*
X98303866Y-64856071D02*
X98256247Y-64760833D01*
X98256247Y-64760833D02*
X98208628Y-64713214D01*
X98208628Y-64713214D02*
X98113390Y-64665595D01*
X234343333Y-121334819D02*
X234010000Y-120858628D01*
X233771905Y-121334819D02*
X233771905Y-120334819D01*
X233771905Y-120334819D02*
X234152857Y-120334819D01*
X234152857Y-120334819D02*
X234248095Y-120382438D01*
X234248095Y-120382438D02*
X234295714Y-120430057D01*
X234295714Y-120430057D02*
X234343333Y-120525295D01*
X234343333Y-120525295D02*
X234343333Y-120668152D01*
X234343333Y-120668152D02*
X234295714Y-120763390D01*
X234295714Y-120763390D02*
X234248095Y-120811009D01*
X234248095Y-120811009D02*
X234152857Y-120858628D01*
X234152857Y-120858628D02*
X233771905Y-120858628D01*
X235200476Y-120334819D02*
X235010000Y-120334819D01*
X235010000Y-120334819D02*
X234914762Y-120382438D01*
X234914762Y-120382438D02*
X234867143Y-120430057D01*
X234867143Y-120430057D02*
X234771905Y-120572914D01*
X234771905Y-120572914D02*
X234724286Y-120763390D01*
X234724286Y-120763390D02*
X234724286Y-121144342D01*
X234724286Y-121144342D02*
X234771905Y-121239580D01*
X234771905Y-121239580D02*
X234819524Y-121287200D01*
X234819524Y-121287200D02*
X234914762Y-121334819D01*
X234914762Y-121334819D02*
X235105238Y-121334819D01*
X235105238Y-121334819D02*
X235200476Y-121287200D01*
X235200476Y-121287200D02*
X235248095Y-121239580D01*
X235248095Y-121239580D02*
X235295714Y-121144342D01*
X235295714Y-121144342D02*
X235295714Y-120906247D01*
X235295714Y-120906247D02*
X235248095Y-120811009D01*
X235248095Y-120811009D02*
X235200476Y-120763390D01*
X235200476Y-120763390D02*
X235105238Y-120715771D01*
X235105238Y-120715771D02*
X234914762Y-120715771D01*
X234914762Y-120715771D02*
X234819524Y-120763390D01*
X234819524Y-120763390D02*
X234771905Y-120811009D01*
X234771905Y-120811009D02*
X234724286Y-120906247D01*
D13*
X166015537Y-73324318D02*
X166015537Y-72054318D01*
X167346014Y-73203365D02*
X167285538Y-73263842D01*
X167285538Y-73263842D02*
X167104109Y-73324318D01*
X167104109Y-73324318D02*
X166983157Y-73324318D01*
X166983157Y-73324318D02*
X166801728Y-73263842D01*
X166801728Y-73263842D02*
X166680776Y-73142889D01*
X166680776Y-73142889D02*
X166620299Y-73021937D01*
X166620299Y-73021937D02*
X166559823Y-72780032D01*
X166559823Y-72780032D02*
X166559823Y-72598603D01*
X166559823Y-72598603D02*
X166620299Y-72356699D01*
X166620299Y-72356699D02*
X166680776Y-72235746D01*
X166680776Y-72235746D02*
X166801728Y-72114794D01*
X166801728Y-72114794D02*
X166983157Y-72054318D01*
X166983157Y-72054318D02*
X167104109Y-72054318D01*
X167104109Y-72054318D02*
X167285538Y-72114794D01*
X167285538Y-72114794D02*
X167346014Y-72175270D01*
X168555538Y-73324318D02*
X167829823Y-73324318D01*
X168192680Y-73324318D02*
X168192680Y-72054318D01*
X168192680Y-72054318D02*
X168071728Y-72235746D01*
X168071728Y-72235746D02*
X167950776Y-72356699D01*
X167950776Y-72356699D02*
X167829823Y-72417175D01*
D12*
X226607142Y-91204819D02*
X226273809Y-90728628D01*
X226035714Y-91204819D02*
X226035714Y-90204819D01*
X226035714Y-90204819D02*
X226416666Y-90204819D01*
X226416666Y-90204819D02*
X226511904Y-90252438D01*
X226511904Y-90252438D02*
X226559523Y-90300057D01*
X226559523Y-90300057D02*
X226607142Y-90395295D01*
X226607142Y-90395295D02*
X226607142Y-90538152D01*
X226607142Y-90538152D02*
X226559523Y-90633390D01*
X226559523Y-90633390D02*
X226511904Y-90681009D01*
X226511904Y-90681009D02*
X226416666Y-90728628D01*
X226416666Y-90728628D02*
X226035714Y-90728628D01*
X227559523Y-91204819D02*
X226988095Y-91204819D01*
X227273809Y-91204819D02*
X227273809Y-90204819D01*
X227273809Y-90204819D02*
X227178571Y-90347676D01*
X227178571Y-90347676D02*
X227083333Y-90442914D01*
X227083333Y-90442914D02*
X226988095Y-90490533D01*
X227940476Y-90300057D02*
X227988095Y-90252438D01*
X227988095Y-90252438D02*
X228083333Y-90204819D01*
X228083333Y-90204819D02*
X228321428Y-90204819D01*
X228321428Y-90204819D02*
X228416666Y-90252438D01*
X228416666Y-90252438D02*
X228464285Y-90300057D01*
X228464285Y-90300057D02*
X228511904Y-90395295D01*
X228511904Y-90395295D02*
X228511904Y-90490533D01*
X228511904Y-90490533D02*
X228464285Y-90633390D01*
X228464285Y-90633390D02*
X227892857Y-91204819D01*
X227892857Y-91204819D02*
X228511904Y-91204819D01*
X105163866Y-62998213D02*
X105163866Y-62236309D01*
X105544819Y-62617261D02*
X104782914Y-62617261D01*
X104544819Y-61283928D02*
X104544819Y-61760118D01*
X104544819Y-61760118D02*
X105021009Y-61807737D01*
X105021009Y-61807737D02*
X104973390Y-61760118D01*
X104973390Y-61760118D02*
X104925771Y-61664880D01*
X104925771Y-61664880D02*
X104925771Y-61426785D01*
X104925771Y-61426785D02*
X104973390Y-61331547D01*
X104973390Y-61331547D02*
X105021009Y-61283928D01*
X105021009Y-61283928D02*
X105116247Y-61236309D01*
X105116247Y-61236309D02*
X105354342Y-61236309D01*
X105354342Y-61236309D02*
X105449580Y-61283928D01*
X105449580Y-61283928D02*
X105497200Y-61331547D01*
X105497200Y-61331547D02*
X105544819Y-61426785D01*
X105544819Y-61426785D02*
X105544819Y-61664880D01*
X105544819Y-61664880D02*
X105497200Y-61760118D01*
X105497200Y-61760118D02*
X105449580Y-61807737D01*
X104544819Y-60950594D02*
X105544819Y-60617261D01*
X105544819Y-60617261D02*
X104544819Y-60283928D01*
X238357142Y-91204819D02*
X238023809Y-90728628D01*
X237785714Y-91204819D02*
X237785714Y-90204819D01*
X237785714Y-90204819D02*
X238166666Y-90204819D01*
X238166666Y-90204819D02*
X238261904Y-90252438D01*
X238261904Y-90252438D02*
X238309523Y-90300057D01*
X238309523Y-90300057D02*
X238357142Y-90395295D01*
X238357142Y-90395295D02*
X238357142Y-90538152D01*
X238357142Y-90538152D02*
X238309523Y-90633390D01*
X238309523Y-90633390D02*
X238261904Y-90681009D01*
X238261904Y-90681009D02*
X238166666Y-90728628D01*
X238166666Y-90728628D02*
X237785714Y-90728628D01*
X239309523Y-91204819D02*
X238738095Y-91204819D01*
X239023809Y-91204819D02*
X239023809Y-90204819D01*
X239023809Y-90204819D02*
X238928571Y-90347676D01*
X238928571Y-90347676D02*
X238833333Y-90442914D01*
X238833333Y-90442914D02*
X238738095Y-90490533D01*
X240261904Y-91204819D02*
X239690476Y-91204819D01*
X239976190Y-91204819D02*
X239976190Y-90204819D01*
X239976190Y-90204819D02*
X239880952Y-90347676D01*
X239880952Y-90347676D02*
X239785714Y-90442914D01*
X239785714Y-90442914D02*
X239690476Y-90490533D01*
X189407146Y-73156152D02*
X189359527Y-73203772D01*
X189359527Y-73203772D02*
X189216670Y-73251391D01*
X189216670Y-73251391D02*
X189121432Y-73251391D01*
X189121432Y-73251391D02*
X188978575Y-73203772D01*
X188978575Y-73203772D02*
X188883337Y-73108533D01*
X188883337Y-73108533D02*
X188835718Y-73013295D01*
X188835718Y-73013295D02*
X188788099Y-72822819D01*
X188788099Y-72822819D02*
X188788099Y-72679962D01*
X188788099Y-72679962D02*
X188835718Y-72489486D01*
X188835718Y-72489486D02*
X188883337Y-72394248D01*
X188883337Y-72394248D02*
X188978575Y-72299010D01*
X188978575Y-72299010D02*
X189121432Y-72251391D01*
X189121432Y-72251391D02*
X189216670Y-72251391D01*
X189216670Y-72251391D02*
X189359527Y-72299010D01*
X189359527Y-72299010D02*
X189407146Y-72346629D01*
X190264289Y-72251391D02*
X190073813Y-72251391D01*
X190073813Y-72251391D02*
X189978575Y-72299010D01*
X189978575Y-72299010D02*
X189930956Y-72346629D01*
X189930956Y-72346629D02*
X189835718Y-72489486D01*
X189835718Y-72489486D02*
X189788099Y-72679962D01*
X189788099Y-72679962D02*
X189788099Y-73060914D01*
X189788099Y-73060914D02*
X189835718Y-73156152D01*
X189835718Y-73156152D02*
X189883337Y-73203772D01*
X189883337Y-73203772D02*
X189978575Y-73251391D01*
X189978575Y-73251391D02*
X190169051Y-73251391D01*
X190169051Y-73251391D02*
X190264289Y-73203772D01*
X190264289Y-73203772D02*
X190311908Y-73156152D01*
X190311908Y-73156152D02*
X190359527Y-73060914D01*
X190359527Y-73060914D02*
X190359527Y-72822819D01*
X190359527Y-72822819D02*
X190311908Y-72727581D01*
X190311908Y-72727581D02*
X190264289Y-72679962D01*
X190264289Y-72679962D02*
X190169051Y-72632343D01*
X190169051Y-72632343D02*
X189978575Y-72632343D01*
X189978575Y-72632343D02*
X189883337Y-72679962D01*
X189883337Y-72679962D02*
X189835718Y-72727581D01*
X189835718Y-72727581D02*
X189788099Y-72822819D01*
X88524819Y-66570357D02*
X88048628Y-66903690D01*
X88524819Y-67141785D02*
X87524819Y-67141785D01*
X87524819Y-67141785D02*
X87524819Y-66760833D01*
X87524819Y-66760833D02*
X87572438Y-66665595D01*
X87572438Y-66665595D02*
X87620057Y-66617976D01*
X87620057Y-66617976D02*
X87715295Y-66570357D01*
X87715295Y-66570357D02*
X87858152Y-66570357D01*
X87858152Y-66570357D02*
X87953390Y-66617976D01*
X87953390Y-66617976D02*
X88001009Y-66665595D01*
X88001009Y-66665595D02*
X88048628Y-66760833D01*
X88048628Y-66760833D02*
X88048628Y-67141785D01*
X87524819Y-66237023D02*
X87524819Y-65617976D01*
X87524819Y-65617976D02*
X87905771Y-65951309D01*
X87905771Y-65951309D02*
X87905771Y-65808452D01*
X87905771Y-65808452D02*
X87953390Y-65713214D01*
X87953390Y-65713214D02*
X88001009Y-65665595D01*
X88001009Y-65665595D02*
X88096247Y-65617976D01*
X88096247Y-65617976D02*
X88334342Y-65617976D01*
X88334342Y-65617976D02*
X88429580Y-65665595D01*
X88429580Y-65665595D02*
X88477200Y-65713214D01*
X88477200Y-65713214D02*
X88524819Y-65808452D01*
X88524819Y-65808452D02*
X88524819Y-66094166D01*
X88524819Y-66094166D02*
X88477200Y-66189404D01*
X88477200Y-66189404D02*
X88429580Y-66237023D01*
X87620057Y-65237023D02*
X87572438Y-65189404D01*
X87572438Y-65189404D02*
X87524819Y-65094166D01*
X87524819Y-65094166D02*
X87524819Y-64856071D01*
X87524819Y-64856071D02*
X87572438Y-64760833D01*
X87572438Y-64760833D02*
X87620057Y-64713214D01*
X87620057Y-64713214D02*
X87715295Y-64665595D01*
X87715295Y-64665595D02*
X87810533Y-64665595D01*
X87810533Y-64665595D02*
X87953390Y-64713214D01*
X87953390Y-64713214D02*
X88524819Y-65284642D01*
X88524819Y-65284642D02*
X88524819Y-64665595D01*
X166954819Y-54642857D02*
X166478628Y-54976190D01*
X166954819Y-55214285D02*
X165954819Y-55214285D01*
X165954819Y-55214285D02*
X165954819Y-54833333D01*
X165954819Y-54833333D02*
X166002438Y-54738095D01*
X166002438Y-54738095D02*
X166050057Y-54690476D01*
X166050057Y-54690476D02*
X166145295Y-54642857D01*
X166145295Y-54642857D02*
X166288152Y-54642857D01*
X166288152Y-54642857D02*
X166383390Y-54690476D01*
X166383390Y-54690476D02*
X166431009Y-54738095D01*
X166431009Y-54738095D02*
X166478628Y-54833333D01*
X166478628Y-54833333D02*
X166478628Y-55214285D01*
X165954819Y-54309523D02*
X165954819Y-53690476D01*
X165954819Y-53690476D02*
X166335771Y-54023809D01*
X166335771Y-54023809D02*
X166335771Y-53880952D01*
X166335771Y-53880952D02*
X166383390Y-53785714D01*
X166383390Y-53785714D02*
X166431009Y-53738095D01*
X166431009Y-53738095D02*
X166526247Y-53690476D01*
X166526247Y-53690476D02*
X166764342Y-53690476D01*
X166764342Y-53690476D02*
X166859580Y-53738095D01*
X166859580Y-53738095D02*
X166907200Y-53785714D01*
X166907200Y-53785714D02*
X166954819Y-53880952D01*
X166954819Y-53880952D02*
X166954819Y-54166666D01*
X166954819Y-54166666D02*
X166907200Y-54261904D01*
X166907200Y-54261904D02*
X166859580Y-54309523D01*
X165954819Y-53071428D02*
X165954819Y-52976190D01*
X165954819Y-52976190D02*
X166002438Y-52880952D01*
X166002438Y-52880952D02*
X166050057Y-52833333D01*
X166050057Y-52833333D02*
X166145295Y-52785714D01*
X166145295Y-52785714D02*
X166335771Y-52738095D01*
X166335771Y-52738095D02*
X166573866Y-52738095D01*
X166573866Y-52738095D02*
X166764342Y-52785714D01*
X166764342Y-52785714D02*
X166859580Y-52833333D01*
X166859580Y-52833333D02*
X166907200Y-52880952D01*
X166907200Y-52880952D02*
X166954819Y-52976190D01*
X166954819Y-52976190D02*
X166954819Y-53071428D01*
X166954819Y-53071428D02*
X166907200Y-53166666D01*
X166907200Y-53166666D02*
X166859580Y-53214285D01*
X166859580Y-53214285D02*
X166764342Y-53261904D01*
X166764342Y-53261904D02*
X166573866Y-53309523D01*
X166573866Y-53309523D02*
X166335771Y-53309523D01*
X166335771Y-53309523D02*
X166145295Y-53261904D01*
X166145295Y-53261904D02*
X166050057Y-53214285D01*
X166050057Y-53214285D02*
X166002438Y-53166666D01*
X166002438Y-53166666D02*
X165954819Y-53071428D01*
X150357142Y-70704819D02*
X150023809Y-70228628D01*
X149785714Y-70704819D02*
X149785714Y-69704819D01*
X149785714Y-69704819D02*
X150166666Y-69704819D01*
X150166666Y-69704819D02*
X150261904Y-69752438D01*
X150261904Y-69752438D02*
X150309523Y-69800057D01*
X150309523Y-69800057D02*
X150357142Y-69895295D01*
X150357142Y-69895295D02*
X150357142Y-70038152D01*
X150357142Y-70038152D02*
X150309523Y-70133390D01*
X150309523Y-70133390D02*
X150261904Y-70181009D01*
X150261904Y-70181009D02*
X150166666Y-70228628D01*
X150166666Y-70228628D02*
X149785714Y-70228628D01*
X151309523Y-70704819D02*
X150738095Y-70704819D01*
X151023809Y-70704819D02*
X151023809Y-69704819D01*
X151023809Y-69704819D02*
X150928571Y-69847676D01*
X150928571Y-69847676D02*
X150833333Y-69942914D01*
X150833333Y-69942914D02*
X150738095Y-69990533D01*
X151880952Y-70133390D02*
X151785714Y-70085771D01*
X151785714Y-70085771D02*
X151738095Y-70038152D01*
X151738095Y-70038152D02*
X151690476Y-69942914D01*
X151690476Y-69942914D02*
X151690476Y-69895295D01*
X151690476Y-69895295D02*
X151738095Y-69800057D01*
X151738095Y-69800057D02*
X151785714Y-69752438D01*
X151785714Y-69752438D02*
X151880952Y-69704819D01*
X151880952Y-69704819D02*
X152071428Y-69704819D01*
X152071428Y-69704819D02*
X152166666Y-69752438D01*
X152166666Y-69752438D02*
X152214285Y-69800057D01*
X152214285Y-69800057D02*
X152261904Y-69895295D01*
X152261904Y-69895295D02*
X152261904Y-69942914D01*
X152261904Y-69942914D02*
X152214285Y-70038152D01*
X152214285Y-70038152D02*
X152166666Y-70085771D01*
X152166666Y-70085771D02*
X152071428Y-70133390D01*
X152071428Y-70133390D02*
X151880952Y-70133390D01*
X151880952Y-70133390D02*
X151785714Y-70181009D01*
X151785714Y-70181009D02*
X151738095Y-70228628D01*
X151738095Y-70228628D02*
X151690476Y-70323866D01*
X151690476Y-70323866D02*
X151690476Y-70514342D01*
X151690476Y-70514342D02*
X151738095Y-70609580D01*
X151738095Y-70609580D02*
X151785714Y-70657200D01*
X151785714Y-70657200D02*
X151880952Y-70704819D01*
X151880952Y-70704819D02*
X152071428Y-70704819D01*
X152071428Y-70704819D02*
X152166666Y-70657200D01*
X152166666Y-70657200D02*
X152214285Y-70609580D01*
X152214285Y-70609580D02*
X152261904Y-70514342D01*
X152261904Y-70514342D02*
X152261904Y-70323866D01*
X152261904Y-70323866D02*
X152214285Y-70228628D01*
X152214285Y-70228628D02*
X152166666Y-70181009D01*
X152166666Y-70181009D02*
X152071428Y-70133390D01*
X210418333Y-127174819D02*
X210085000Y-126698628D01*
X209846905Y-127174819D02*
X209846905Y-126174819D01*
X209846905Y-126174819D02*
X210227857Y-126174819D01*
X210227857Y-126174819D02*
X210323095Y-126222438D01*
X210323095Y-126222438D02*
X210370714Y-126270057D01*
X210370714Y-126270057D02*
X210418333Y-126365295D01*
X210418333Y-126365295D02*
X210418333Y-126508152D01*
X210418333Y-126508152D02*
X210370714Y-126603390D01*
X210370714Y-126603390D02*
X210323095Y-126651009D01*
X210323095Y-126651009D02*
X210227857Y-126698628D01*
X210227857Y-126698628D02*
X209846905Y-126698628D01*
X211275476Y-126508152D02*
X211275476Y-127174819D01*
X211037381Y-126127200D02*
X210799286Y-126841485D01*
X210799286Y-126841485D02*
X211418333Y-126841485D01*
D11*
X263219161Y-108214286D02*
X263314400Y-108309524D01*
X263314400Y-108309524D02*
X263409638Y-108595238D01*
X263409638Y-108595238D02*
X263409638Y-108785714D01*
X263409638Y-108785714D02*
X263314400Y-109071429D01*
X263314400Y-109071429D02*
X263123923Y-109261905D01*
X263123923Y-109261905D02*
X262933447Y-109357143D01*
X262933447Y-109357143D02*
X262552495Y-109452381D01*
X262552495Y-109452381D02*
X262266780Y-109452381D01*
X262266780Y-109452381D02*
X261885828Y-109357143D01*
X261885828Y-109357143D02*
X261695352Y-109261905D01*
X261695352Y-109261905D02*
X261504876Y-109071429D01*
X261504876Y-109071429D02*
X261409638Y-108785714D01*
X261409638Y-108785714D02*
X261409638Y-108595238D01*
X261409638Y-108595238D02*
X261504876Y-108309524D01*
X261504876Y-108309524D02*
X261600114Y-108214286D01*
X262838209Y-107452381D02*
X262838209Y-106500000D01*
X263409638Y-107642857D02*
X261409638Y-106976191D01*
X261409638Y-106976191D02*
X263409638Y-106309524D01*
X263409638Y-104500000D02*
X262457257Y-105166667D01*
X263409638Y-105642857D02*
X261409638Y-105642857D01*
X261409638Y-105642857D02*
X261409638Y-104880952D01*
X261409638Y-104880952D02*
X261504876Y-104690476D01*
X261504876Y-104690476D02*
X261600114Y-104595238D01*
X261600114Y-104595238D02*
X261790590Y-104500000D01*
X261790590Y-104500000D02*
X262076304Y-104500000D01*
X262076304Y-104500000D02*
X262266780Y-104595238D01*
X262266780Y-104595238D02*
X262362019Y-104690476D01*
X262362019Y-104690476D02*
X262457257Y-104880952D01*
X262457257Y-104880952D02*
X262457257Y-105642857D01*
X261409638Y-103928571D02*
X261409638Y-102785714D01*
X263409638Y-103357143D02*
X261409638Y-103357143D01*
X262362019Y-102119047D02*
X262362019Y-101452380D01*
X263409638Y-101166666D02*
X263409638Y-102119047D01*
X263409638Y-102119047D02*
X261409638Y-102119047D01*
X261409638Y-102119047D02*
X261409638Y-101166666D01*
X263409638Y-98785713D02*
X261409638Y-98785713D01*
X261409638Y-98785713D02*
X263409638Y-97642856D01*
X263409638Y-97642856D02*
X261409638Y-97642856D01*
X262362019Y-96690475D02*
X262362019Y-96023808D01*
X263409638Y-95738094D02*
X263409638Y-96690475D01*
X263409638Y-96690475D02*
X261409638Y-96690475D01*
X261409638Y-96690475D02*
X261409638Y-95738094D01*
X261409638Y-95071427D02*
X263409638Y-94595237D01*
X263409638Y-94595237D02*
X261981066Y-94214284D01*
X261981066Y-94214284D02*
X263409638Y-93833332D01*
X263409638Y-93833332D02*
X261409638Y-93357142D01*
X263219161Y-91452380D02*
X263314400Y-91547618D01*
X263314400Y-91547618D02*
X263409638Y-91833332D01*
X263409638Y-91833332D02*
X263409638Y-92023808D01*
X263409638Y-92023808D02*
X263314400Y-92309523D01*
X263314400Y-92309523D02*
X263123923Y-92499999D01*
X263123923Y-92499999D02*
X262933447Y-92595237D01*
X262933447Y-92595237D02*
X262552495Y-92690475D01*
X262552495Y-92690475D02*
X262266780Y-92690475D01*
X262266780Y-92690475D02*
X261885828Y-92595237D01*
X261885828Y-92595237D02*
X261695352Y-92499999D01*
X261695352Y-92499999D02*
X261504876Y-92309523D01*
X261504876Y-92309523D02*
X261409638Y-92023808D01*
X261409638Y-92023808D02*
X261409638Y-91833332D01*
X261409638Y-91833332D02*
X261504876Y-91547618D01*
X261504876Y-91547618D02*
X261600114Y-91452380D01*
X261409638Y-90214285D02*
X261409638Y-89833332D01*
X261409638Y-89833332D02*
X261504876Y-89642856D01*
X261504876Y-89642856D02*
X261695352Y-89452380D01*
X261695352Y-89452380D02*
X262076304Y-89357142D01*
X262076304Y-89357142D02*
X262742971Y-89357142D01*
X262742971Y-89357142D02*
X263123923Y-89452380D01*
X263123923Y-89452380D02*
X263314400Y-89642856D01*
X263314400Y-89642856D02*
X263409638Y-89833332D01*
X263409638Y-89833332D02*
X263409638Y-90214285D01*
X263409638Y-90214285D02*
X263314400Y-90404761D01*
X263314400Y-90404761D02*
X263123923Y-90595237D01*
X263123923Y-90595237D02*
X262742971Y-90690475D01*
X262742971Y-90690475D02*
X262076304Y-90690475D01*
X262076304Y-90690475D02*
X261695352Y-90595237D01*
X261695352Y-90595237D02*
X261504876Y-90404761D01*
X261504876Y-90404761D02*
X261409638Y-90214285D01*
X263409638Y-88499999D02*
X261409638Y-88499999D01*
X261409638Y-88499999D02*
X262838209Y-87833332D01*
X262838209Y-87833332D02*
X261409638Y-87166666D01*
X261409638Y-87166666D02*
X263409638Y-87166666D01*
X263409638Y-84690475D02*
X261409638Y-84690475D01*
X261409638Y-84690475D02*
X263409638Y-83547618D01*
X263409638Y-83547618D02*
X261409638Y-83547618D01*
X263314400Y-82690475D02*
X263409638Y-82404761D01*
X263409638Y-82404761D02*
X263409638Y-81928570D01*
X263409638Y-81928570D02*
X263314400Y-81738094D01*
X263314400Y-81738094D02*
X263219161Y-81642856D01*
X263219161Y-81642856D02*
X263028685Y-81547618D01*
X263028685Y-81547618D02*
X262838209Y-81547618D01*
X262838209Y-81547618D02*
X262647733Y-81642856D01*
X262647733Y-81642856D02*
X262552495Y-81738094D01*
X262552495Y-81738094D02*
X262457257Y-81928570D01*
X262457257Y-81928570D02*
X262362019Y-82309523D01*
X262362019Y-82309523D02*
X262266780Y-82499999D01*
X262266780Y-82499999D02*
X262171542Y-82595237D01*
X262171542Y-82595237D02*
X261981066Y-82690475D01*
X261981066Y-82690475D02*
X261790590Y-82690475D01*
X261790590Y-82690475D02*
X261600114Y-82595237D01*
X261600114Y-82595237D02*
X261504876Y-82499999D01*
X261504876Y-82499999D02*
X261409638Y-82309523D01*
X261409638Y-82309523D02*
X261409638Y-81833332D01*
X261409638Y-81833332D02*
X261504876Y-81547618D01*
D14*
%TO.C,R5*%
X228782936Y-121795000D02*
X229237064Y-121795000D01*
X228782936Y-123265000D02*
X229237064Y-123265000D01*
%TO.C,R16*%
X205237064Y-87505000D02*
X204782936Y-87505000D01*
X205237064Y-88975000D02*
X204782936Y-88975000D01*
%TO.C,C4*%
X188851248Y-64640000D02*
X190273752Y-64640000D01*
X188851248Y-67360000D02*
X190273752Y-67360000D01*
%TO.C,C2*%
X162726248Y-80590000D02*
X164148752Y-80590000D01*
X162726248Y-82410000D02*
X164148752Y-82410000D01*
%TO.C,-5V*%
X115940000Y-59782500D02*
X115940000Y-62642500D01*
X117860000Y-59782500D02*
X115940000Y-59782500D01*
X117860000Y-62642500D02*
X117860000Y-59782500D01*
%TO.C,R25*%
X106005000Y-65700436D02*
X106005000Y-66154564D01*
X107475000Y-65700436D02*
X107475000Y-66154564D01*
%TO.C,R10*%
X210812064Y-90045000D02*
X210357936Y-90045000D01*
X210812064Y-91515000D02*
X210357936Y-91515000D01*
%TO.C,R22*%
X167265000Y-60189564D02*
X167265000Y-59735436D01*
X168735000Y-60189564D02*
X168735000Y-59735436D01*
%TO.C,R14*%
X235782936Y-87505000D02*
X236237064Y-87505000D01*
X235782936Y-88975000D02*
X236237064Y-88975000D01*
%TO.C,R28*%
X116165000Y-65700436D02*
X116165000Y-66154564D01*
X117635000Y-65700436D02*
X117635000Y-66154564D01*
%TO.C,R23*%
X160265000Y-60189564D02*
X160265000Y-59735436D01*
X161735000Y-60189564D02*
X161735000Y-59735436D01*
%TO.C,R31*%
X163265000Y-54189564D02*
X163265000Y-53735436D01*
X164735000Y-54189564D02*
X164735000Y-53735436D01*
%TO.C,R27*%
X175265000Y-54189564D02*
X175265000Y-53735436D01*
X176735000Y-54189564D02*
X176735000Y-53735436D01*
%TO.C,C1*%
X190273752Y-69140000D02*
X188851248Y-69140000D01*
X190273752Y-71860000D02*
X188851248Y-71860000D01*
%TO.C,R21*%
X171765000Y-60189564D02*
X171765000Y-59735436D01*
X173235000Y-60189564D02*
X173235000Y-59735436D01*
%TO.C,R24*%
X156265000Y-60189564D02*
X156265000Y-59735436D01*
X157735000Y-60189564D02*
X157735000Y-59735436D01*
%TO.C,J3*%
X214710000Y-67790000D02*
X223830000Y-67790000D01*
X214710000Y-95990000D02*
X214710000Y-67790000D01*
X216020000Y-69090000D02*
X222520000Y-69090000D01*
X216020000Y-94690000D02*
X216020000Y-69090000D01*
X222520000Y-69090000D02*
X222520000Y-79840000D01*
X222520000Y-79840000D02*
X223830000Y-79840000D01*
X222520000Y-83940000D02*
X222520000Y-94690000D01*
X222520000Y-94690000D02*
X216020000Y-94690000D01*
X223830000Y-67790000D02*
X223830000Y-95990000D01*
X223830000Y-83940000D02*
X222520000Y-83940000D01*
X223830000Y-95990000D02*
X214710000Y-95990000D01*
X224220000Y-90780000D02*
X225220000Y-91280000D01*
X225220000Y-90280000D02*
X224220000Y-90780000D01*
X225220000Y-91280000D02*
X225220000Y-90280000D01*
%TO.C,R9*%
X205237064Y-90045000D02*
X204782936Y-90045000D01*
X205237064Y-91515000D02*
X204782936Y-91515000D01*
%TO.C,R15*%
X210812064Y-87505000D02*
X210357936Y-87505000D01*
X210812064Y-88975000D02*
X210357936Y-88975000D01*
%TO.C,R8*%
X230282936Y-84965000D02*
X230737064Y-84965000D01*
X230282936Y-86435000D02*
X230737064Y-86435000D01*
%TO.C,R1*%
X234282936Y-124335000D02*
X234737064Y-124335000D01*
X234282936Y-125805000D02*
X234737064Y-125805000D01*
%TO.C,R7*%
X235782936Y-84965000D02*
X236237064Y-84965000D01*
X235782936Y-86435000D02*
X236237064Y-86435000D01*
%TO.C,+12V*%
X85460000Y-60712500D02*
X85460000Y-63572500D01*
X85460000Y-63572500D02*
X87380000Y-63572500D01*
X87380000Y-63572500D02*
X87380000Y-60712500D01*
%TO.C,C3*%
X190211252Y-77090000D02*
X188788748Y-77090000D01*
X190211252Y-78910000D02*
X188788748Y-78910000D01*
%TO.C,J1*%
X214710000Y-102080000D02*
X223830000Y-102080000D01*
X214710000Y-130280000D02*
X214710000Y-102080000D01*
X216020000Y-103380000D02*
X222520000Y-103380000D01*
X216020000Y-128980000D02*
X216020000Y-103380000D01*
X222520000Y-103380000D02*
X222520000Y-114130000D01*
X222520000Y-114130000D02*
X223830000Y-114130000D01*
X222520000Y-118230000D02*
X222520000Y-128980000D01*
X222520000Y-128980000D02*
X216020000Y-128980000D01*
X223830000Y-102080000D02*
X223830000Y-130280000D01*
X223830000Y-118230000D02*
X222520000Y-118230000D01*
X223830000Y-130280000D02*
X214710000Y-130280000D01*
X224220000Y-125070000D02*
X225220000Y-125570000D01*
X225220000Y-124570000D02*
X224220000Y-125070000D01*
X225220000Y-125570000D02*
X225220000Y-124570000D01*
%TO.C,R13*%
X230320436Y-87505000D02*
X230774564Y-87505000D01*
X230320436Y-88975000D02*
X230774564Y-88975000D01*
%TO.C,PNS*%
X137375662Y-137105000D02*
X137808675Y-137355000D01*
X137375662Y-137605000D02*
X137375662Y-137105000D01*
X137808675Y-137355000D02*
X137375662Y-137605000D01*
X138270000Y-146285000D02*
X138270000Y-95185000D01*
X139330000Y-94125000D02*
X149830000Y-94125000D01*
X140370000Y-137966689D02*
X140370000Y-103503311D01*
X142318256Y-101868530D02*
X147418256Y-102767798D01*
X147418256Y-138702202D02*
X142318256Y-139601470D01*
X148790000Y-104402579D02*
X148790000Y-137067421D01*
X149830000Y-147345000D02*
X139330000Y-147345000D01*
X150890000Y-95185000D02*
X150890000Y-146285000D01*
X138270000Y-95185000D02*
G75*
G02*
X139330000Y-94125000I1060000J0D01*
G01*
X139330000Y-147345000D02*
G75*
G02*
X138270000Y-146285000I1J1060001D01*
G01*
X140370000Y-103503311D02*
G75*
G02*
X142318258Y-101868519I1660000J11D01*
G01*
X142318256Y-139601470D02*
G75*
G02*
X140370000Y-137966689I-288256J1634781D01*
G01*
X147418256Y-102767798D02*
G75*
G02*
X148790021Y-104402579I-288256J-1634802D01*
G01*
X148790000Y-137067421D02*
G75*
G02*
X147418256Y-138702202I-1659999J-1D01*
G01*
X149830000Y-94125000D02*
G75*
G02*
X150890000Y-95185000I0J-1060000D01*
G01*
X150890000Y-146285000D02*
G75*
G02*
X149830000Y-147345000I-1060001J1D01*
G01*
%TO.C,A1*%
X66500000Y-81890000D02*
X66500000Y-84380000D01*
X66500000Y-84380000D02*
X67413520Y-84380000D01*
X66500000Y-85727939D02*
X66500000Y-84380000D01*
X66500000Y-87655000D02*
X66500000Y-86652061D01*
X66500000Y-87990000D02*
X67416000Y-87990000D01*
X66500000Y-95790000D02*
X67416000Y-95790000D01*
X66500000Y-96125000D02*
X66500000Y-87655000D01*
X66500000Y-97127939D02*
X66500000Y-96125000D01*
X66500000Y-99400000D02*
X66500000Y-98052060D01*
X66500000Y-99400000D02*
X67413520Y-99400000D01*
X66500000Y-101890000D02*
X66500000Y-99400000D01*
X66920000Y-102469676D02*
X66920000Y-102980000D01*
X66920063Y-81620000D02*
X66563000Y-81620000D01*
X66920063Y-102160000D02*
X66563000Y-102160000D01*
X69040000Y-81280000D02*
X69460000Y-81280000D01*
X69040000Y-81620000D02*
X69460000Y-81620000D01*
X69040000Y-102160000D02*
X69460000Y-102160000D01*
X69040000Y-102500000D02*
X69040000Y-102980000D01*
X69040000Y-102500000D02*
X69460000Y-102500000D01*
X69804000Y-87990000D02*
X71020000Y-87990000D01*
X69804000Y-95790000D02*
X71020000Y-95790000D01*
X69806480Y-84380000D02*
X114413520Y-84380000D01*
X69806480Y-99400000D02*
X114413520Y-99400000D01*
X71020000Y-88286090D02*
X71020000Y-87990000D01*
X71020000Y-93136090D02*
X71020000Y-90643910D01*
X71020000Y-95790000D02*
X71020000Y-95493910D01*
X71580000Y-81280000D02*
X72000000Y-81280000D01*
X71580000Y-81620000D02*
X72000000Y-81620000D01*
X71580000Y-102160000D02*
X72000000Y-102160000D01*
X71580000Y-102500000D02*
X72000000Y-102500000D01*
X74120000Y-81280000D02*
X74540000Y-81280000D01*
X74120000Y-81620000D02*
X74540000Y-81620000D01*
X74120000Y-102160000D02*
X74540000Y-102160000D01*
X74120000Y-102500000D02*
X74540000Y-102500000D01*
X76660000Y-81280000D02*
X77080000Y-81280000D01*
X76660000Y-81620000D02*
X77080000Y-81620000D01*
X76660000Y-102160000D02*
X77080000Y-102160000D01*
X76660000Y-102500000D02*
X77080000Y-102500000D01*
X79200000Y-81280000D02*
X79620000Y-81280000D01*
X79200000Y-81620000D02*
X79620000Y-81620000D01*
X79200000Y-102160000D02*
X79620000Y-102160000D01*
X79200000Y-102500000D02*
X79620000Y-102500000D01*
X81740000Y-81280000D02*
X82160000Y-81280000D01*
X81740000Y-81620000D02*
X82160000Y-81620000D01*
X81740000Y-102160000D02*
X82160000Y-102160000D01*
X81740000Y-102500000D02*
X82160000Y-102500000D01*
X84280000Y-81280000D02*
X84700000Y-81280000D01*
X84280000Y-81620000D02*
X84700000Y-81620000D01*
X84280000Y-102160000D02*
X84700000Y-102160000D01*
X84280000Y-102500000D02*
X84700000Y-102500000D01*
X86820000Y-81280000D02*
X87240000Y-81280000D01*
X86820000Y-81620000D02*
X87240000Y-81620000D01*
X86820000Y-102160000D02*
X87240000Y-102160000D01*
X86820000Y-102500000D02*
X87240000Y-102500000D01*
X89360000Y-81280000D02*
X89780000Y-81280000D01*
X89360000Y-81620000D02*
X89780000Y-81620000D01*
X89360000Y-102160000D02*
X89780000Y-102160000D01*
X89360000Y-102500000D02*
X89780000Y-102500000D01*
X91900000Y-81280000D02*
X92320000Y-81280000D01*
X91900000Y-81620000D02*
X92320000Y-81620000D01*
X91900000Y-102160000D02*
X92320000Y-102160000D01*
X91900000Y-102500000D02*
X92320000Y-102500000D01*
X94440000Y-81280000D02*
X94860000Y-81280000D01*
X94440000Y-81620000D02*
X94860000Y-81620000D01*
X94440000Y-102160000D02*
X94860000Y-102160000D01*
X94440000Y-102500000D02*
X94860000Y-102500000D01*
X96980000Y-81280000D02*
X97400000Y-81280000D01*
X96980000Y-81620000D02*
X97400000Y-81620000D01*
X96980000Y-102160000D02*
X97400000Y-102160000D01*
X96980000Y-102500000D02*
X97400000Y-102500000D01*
X99520000Y-81280000D02*
X99940000Y-81280000D01*
X99520000Y-81620000D02*
X99940000Y-81620000D01*
X99520000Y-102160000D02*
X99940000Y-102160000D01*
X99520000Y-102500000D02*
X99940000Y-102500000D01*
X102060000Y-81280000D02*
X102480000Y-81280000D01*
X102060000Y-81620000D02*
X102480000Y-81620000D01*
X102060000Y-102160000D02*
X102480000Y-102160000D01*
X102060000Y-102500000D02*
X102480000Y-102500000D01*
X104600000Y-81280000D02*
X105020000Y-81280000D01*
X104600000Y-81620000D02*
X105020000Y-81620000D01*
X104600000Y-102160000D02*
X105020000Y-102160000D01*
X104600000Y-102500000D02*
X105020000Y-102500000D01*
X107140000Y-81280000D02*
X107560000Y-81280000D01*
X107140000Y-81620000D02*
X107560000Y-81620000D01*
X107140000Y-102160000D02*
X107560000Y-102160000D01*
X107140000Y-102500000D02*
X107560000Y-102500000D01*
X109680000Y-81280000D02*
X110100000Y-81280000D01*
X109680000Y-81620000D02*
X110100000Y-81620000D01*
X109680000Y-102160000D02*
X110100000Y-102160000D01*
X109680000Y-102500000D02*
X110100000Y-102500000D01*
X112220000Y-81280000D02*
X112640000Y-81280000D01*
X112220000Y-81620000D02*
X112640000Y-81620000D01*
X112220000Y-102160000D02*
X112640000Y-102160000D01*
X112220000Y-102500000D02*
X112640000Y-102500000D01*
X114760000Y-81280000D02*
X115180000Y-81280000D01*
X114760000Y-81620000D02*
X115180000Y-81620000D01*
X114760000Y-102160000D02*
X115180000Y-102160000D01*
X114760000Y-102500000D02*
X115180000Y-102500000D01*
X116806480Y-84380000D02*
X117720000Y-84380000D01*
X116806480Y-99400000D02*
X117720000Y-99400000D01*
X117299937Y-81620000D02*
X117657000Y-81620000D01*
X117299937Y-102160000D02*
X117657000Y-102160000D01*
X117720000Y-85727939D02*
X117720000Y-81890000D01*
X117720000Y-86652061D02*
X117720000Y-88290000D01*
X117720000Y-88290000D02*
X117720000Y-95490000D01*
X117720000Y-95490000D02*
X117720000Y-97127939D01*
X117720000Y-101890000D02*
X117720000Y-98052061D01*
X66500000Y-81890000D02*
G75*
G02*
X66920063Y-81310324I610000J0D01*
G01*
X66920000Y-102469676D02*
G75*
G02*
X66500000Y-101890000I190051J579692D01*
G01*
X117299937Y-81310324D02*
G75*
G02*
X117720069Y-81890000I-189837J-579676D01*
G01*
X117720000Y-101890000D02*
G75*
G02*
X117299937Y-102469676I-610002J1D01*
G01*
%TO.C,-12V*%
X95620000Y-59892500D02*
X95620000Y-62752500D01*
X97540000Y-59892500D02*
X95620000Y-59892500D01*
X97540000Y-62752500D02*
X97540000Y-59892500D01*
%TO.C,R3*%
X228782936Y-124335000D02*
X229237064Y-124335000D01*
X228782936Y-125805000D02*
X229237064Y-125805000D01*
%TO.C,R20*%
X150810436Y-74765000D02*
X151264564Y-74765000D01*
X150810436Y-76235000D02*
X151264564Y-76235000D01*
%TO.C,R19*%
X151189564Y-67765000D02*
X150735436Y-67765000D01*
X151189564Y-69235000D02*
X150735436Y-69235000D01*
%TO.C,R17*%
X189310436Y-84765000D02*
X189764564Y-84765000D01*
X189310436Y-86235000D02*
X189764564Y-86235000D01*
%TO.C,R26*%
X171765000Y-53735436D02*
X171765000Y-54189564D01*
X173235000Y-53735436D02*
X173235000Y-54189564D01*
%TO.C,C5*%
X188726248Y-80590000D02*
X190148752Y-80590000D01*
X188726248Y-82410000D02*
X190148752Y-82410000D01*
%TO.C,R2*%
X206314564Y-124335000D02*
X205860436Y-124335000D01*
X206314564Y-125805000D02*
X205860436Y-125805000D01*
%TO.C,R29*%
X95845000Y-65700436D02*
X95845000Y-66154564D01*
X97315000Y-65700436D02*
X97315000Y-66154564D01*
%TO.C,R6*%
X234282936Y-121795000D02*
X234737064Y-121795000D01*
X234282936Y-123265000D02*
X234737064Y-123265000D01*
D10*
%TO.C,IC1*%
X162605300Y-68100000D02*
X171905300Y-68100000D01*
X162605300Y-77400000D02*
X162605300Y-68100000D01*
X171905300Y-68100000D02*
X171905300Y-77400000D01*
X171905300Y-77400000D02*
X162605300Y-77400000D01*
D15*
X161155300Y-68250000D02*
G75*
G02*
X160905300Y-68250000I-125000J0D01*
G01*
X160905300Y-68250000D02*
G75*
G02*
X161155300Y-68250000I125000J0D01*
G01*
D14*
%TO.C,R12*%
X230282936Y-90045000D02*
X230737064Y-90045000D01*
X230282936Y-91515000D02*
X230737064Y-91515000D01*
%TO.C,+5V*%
X105780000Y-60712500D02*
X105780000Y-63572500D01*
X105780000Y-63572500D02*
X107700000Y-63572500D01*
X107700000Y-63572500D02*
X107700000Y-60712500D01*
%TO.C,R11*%
X235782936Y-90045000D02*
X236237064Y-90045000D01*
X235782936Y-91515000D02*
X236237064Y-91515000D01*
%TO.C,C6*%
X188851248Y-73590000D02*
X190273752Y-73590000D01*
X188851248Y-75410000D02*
X190273752Y-75410000D01*
%TO.C,R32*%
X85685000Y-65700436D02*
X85685000Y-66154564D01*
X87155000Y-65700436D02*
X87155000Y-66154564D01*
%TO.C,R30*%
X167265000Y-53735436D02*
X167265000Y-54189564D01*
X168735000Y-53735436D02*
X168735000Y-54189564D01*
%TO.C,R18*%
X151264564Y-71265000D02*
X150810436Y-71265000D01*
X151264564Y-72735000D02*
X150810436Y-72735000D01*
%TO.C,R4*%
X210812064Y-124335000D02*
X210357936Y-124335000D01*
X210812064Y-125805000D02*
X210357936Y-125805000D01*
%TO.C,CARTE NEWCOM NS*%
X251310000Y-51680000D02*
X259630000Y-51680000D01*
X251310000Y-146900000D02*
X251310000Y-51680000D01*
X252470000Y-57790000D02*
X255470000Y-57790000D01*
X252470000Y-140790000D02*
X252470000Y-57790000D01*
X255470000Y-56790000D02*
X258470000Y-56790000D01*
X255470000Y-57790000D02*
X255470000Y-56790000D01*
X255470000Y-140790000D02*
X252470000Y-140790000D01*
X255470000Y-141790000D02*
X255470000Y-140790000D01*
X258470000Y-56790000D02*
X258470000Y-141790000D01*
X258470000Y-141790000D02*
X255470000Y-141790000D01*
X259630000Y-51680000D02*
X259630000Y-146900000D01*
X259630000Y-146900000D02*
X251310000Y-146900000D01*
X259820000Y-138660000D02*
X260500000Y-138960000D01*
X260500000Y-138360000D02*
X259820000Y-138660000D01*
X260500000Y-138960000D02*
X260500000Y-138360000D01*
%TD*%
M02*
